<mxfile host="app.diagrams.net" agent="Mozilla/5.0 (Windows NT 10.0; Win64; x64) AppleWebKit/537.36 (KHTML, like Gecko) Chrome/131.0.0.0 Safari/537.36" version="26.0.5">
  <diagram name="Page-1" id="QgooIhrSJxqAA-kAgqlI">
    <mxGraphModel dx="2066" dy="525" grid="1" gridSize="10" guides="1" tooltips="1" connect="1" arrows="1" fold="1" page="1" pageScale="1" pageWidth="850" pageHeight="1100" math="0" shadow="0">
      <root>
        <mxCell id="0" />
        <mxCell id="1" parent="0" />
        <mxCell id="dvdhT52j-xXcBjyd7pjd-1" value="" style="rounded=0;whiteSpace=wrap;html=1;" vertex="1" parent="1">
          <mxGeometry x="160" y="60" width="620" height="80" as="geometry" />
        </mxCell>
        <mxCell id="dvdhT52j-xXcBjyd7pjd-6" value="" style="edgeStyle=orthogonalEdgeStyle;rounded=0;orthogonalLoop=1;jettySize=auto;html=1;" edge="1" parent="1" source="dvdhT52j-xXcBjyd7pjd-2" target="dvdhT52j-xXcBjyd7pjd-3">
          <mxGeometry relative="1" as="geometry" />
        </mxCell>
        <mxCell id="dvdhT52j-xXcBjyd7pjd-2" value="Logging" style="rounded=1;whiteSpace=wrap;html=1;" vertex="1" parent="1">
          <mxGeometry x="180" y="85" width="110" height="30" as="geometry" />
        </mxCell>
        <mxCell id="dvdhT52j-xXcBjyd7pjd-7" value="" style="edgeStyle=orthogonalEdgeStyle;rounded=0;orthogonalLoop=1;jettySize=auto;html=1;" edge="1" parent="1" source="dvdhT52j-xXcBjyd7pjd-3" target="dvdhT52j-xXcBjyd7pjd-4">
          <mxGeometry relative="1" as="geometry" />
        </mxCell>
        <mxCell id="dvdhT52j-xXcBjyd7pjd-3" value="Entrypoint" style="rounded=1;whiteSpace=wrap;html=1;" vertex="1" parent="1">
          <mxGeometry x="320" y="85" width="100" height="30" as="geometry" />
        </mxCell>
        <mxCell id="dvdhT52j-xXcBjyd7pjd-8" value="" style="edgeStyle=orthogonalEdgeStyle;rounded=0;orthogonalLoop=1;jettySize=auto;html=1;" edge="1" parent="1" source="dvdhT52j-xXcBjyd7pjd-4" target="dvdhT52j-xXcBjyd7pjd-5">
          <mxGeometry relative="1" as="geometry" />
        </mxCell>
        <mxCell id="dvdhT52j-xXcBjyd7pjd-4" value="Endpoint" style="rounded=1;whiteSpace=wrap;html=1;" vertex="1" parent="1">
          <mxGeometry x="450" y="85" width="100" height="30" as="geometry" />
        </mxCell>
        <mxCell id="dvdhT52j-xXcBjyd7pjd-5" value="Saving Progess" style="rounded=1;whiteSpace=wrap;html=1;" vertex="1" parent="1">
          <mxGeometry x="581" y="85" width="120" height="30" as="geometry" />
        </mxCell>
        <mxCell id="dvdhT52j-xXcBjyd7pjd-9" value="Security System Management" style="shape=module;align=left;spacingLeft=20;align=center;verticalAlign=top;whiteSpace=wrap;html=1;" vertex="1" parent="1">
          <mxGeometry x="170" y="290" width="120" height="50" as="geometry" />
        </mxCell>
        <mxCell id="dvdhT52j-xXcBjyd7pjd-16" style="edgeStyle=orthogonalEdgeStyle;rounded=0;orthogonalLoop=1;jettySize=auto;html=1;entryX=0.5;entryY=1;entryDx=0;entryDy=0;" edge="1" parent="1" source="dvdhT52j-xXcBjyd7pjd-13" target="dvdhT52j-xXcBjyd7pjd-2">
          <mxGeometry relative="1" as="geometry" />
        </mxCell>
        <mxCell id="dvdhT52j-xXcBjyd7pjd-13" value="&lt;font style=&quot;font-size: 8px;&quot;&gt;Scanning username &amp;amp; password&lt;/font&gt;" style="rounded=1;whiteSpace=wrap;html=1;arcSize=50;" vertex="1" parent="1">
          <mxGeometry x="181.25" y="220" width="107.5" height="30" as="geometry" />
        </mxCell>
        <mxCell id="dvdhT52j-xXcBjyd7pjd-15" value="" style="endArrow=block;dashed=1;endFill=0;endSize=12;html=1;rounded=0;exitX=0.5;exitY=0;exitDx=0;exitDy=0;" edge="1" parent="1" source="dvdhT52j-xXcBjyd7pjd-9">
          <mxGeometry width="160" relative="1" as="geometry">
            <mxPoint x="490" y="300" as="sourcePoint" />
            <mxPoint x="230" y="250" as="targetPoint" />
          </mxGeometry>
        </mxCell>
        <mxCell id="dvdhT52j-xXcBjyd7pjd-18" value="Document Management System" style="shape=module;align=left;spacingLeft=20;align=center;verticalAlign=top;whiteSpace=wrap;html=1;" vertex="1" parent="1">
          <mxGeometry x="440" y="280" width="120" height="50" as="geometry" />
        </mxCell>
        <mxCell id="dvdhT52j-xXcBjyd7pjd-21" style="edgeStyle=orthogonalEdgeStyle;rounded=0;orthogonalLoop=1;jettySize=auto;html=1;entryX=0.5;entryY=1;entryDx=0;entryDy=0;" edge="1" parent="1" target="dvdhT52j-xXcBjyd7pjd-3">
          <mxGeometry relative="1" as="geometry">
            <mxPoint x="370" y="220" as="sourcePoint" />
          </mxGeometry>
        </mxCell>
        <mxCell id="dvdhT52j-xXcBjyd7pjd-19" value="&lt;font style=&quot;font-size: 8px;&quot;&gt;Display Graphics And Data Entry&lt;/font&gt;" style="rounded=1;whiteSpace=wrap;html=1;arcSize=50;" vertex="1" parent="1">
          <mxGeometry x="320" y="210" width="107.5" height="30" as="geometry" />
        </mxCell>
        <mxCell id="dvdhT52j-xXcBjyd7pjd-20" value="" style="endArrow=block;dashed=1;endFill=0;endSize=12;html=1;rounded=0;exitX=0.333;exitY=0.027;exitDx=0;exitDy=0;exitPerimeter=0;" edge="1" parent="1" source="dvdhT52j-xXcBjyd7pjd-18">
          <mxGeometry width="160" relative="1" as="geometry">
            <mxPoint x="490" y="200" as="sourcePoint" />
            <mxPoint x="370" y="240" as="targetPoint" />
            <Array as="points">
              <mxPoint x="480" y="270" />
              <mxPoint x="370" y="270" />
            </Array>
          </mxGeometry>
        </mxCell>
        <mxCell id="dvdhT52j-xXcBjyd7pjd-24" style="edgeStyle=orthogonalEdgeStyle;rounded=0;orthogonalLoop=1;jettySize=auto;html=1;" edge="1" parent="1" source="dvdhT52j-xXcBjyd7pjd-22" target="dvdhT52j-xXcBjyd7pjd-4">
          <mxGeometry relative="1" as="geometry">
            <Array as="points">
              <mxPoint x="500" y="190" />
              <mxPoint x="500" y="190" />
            </Array>
          </mxGeometry>
        </mxCell>
        <mxCell id="dvdhT52j-xXcBjyd7pjd-22" value="&lt;font style=&quot;font-size: 8px;&quot;&gt;Priinting Service Document&lt;/font&gt;" style="rounded=1;whiteSpace=wrap;html=1;arcSize=50;" vertex="1" parent="1">
          <mxGeometry x="450" y="210" width="107.5" height="30" as="geometry" />
        </mxCell>
        <mxCell id="dvdhT52j-xXcBjyd7pjd-23" value="" style="endArrow=block;dashed=1;endFill=0;endSize=12;html=1;rounded=0;entryX=0.5;entryY=1;entryDx=0;entryDy=0;" edge="1" parent="1" target="dvdhT52j-xXcBjyd7pjd-22">
          <mxGeometry width="160" relative="1" as="geometry">
            <mxPoint x="504" y="280" as="sourcePoint" />
            <mxPoint x="650" y="200" as="targetPoint" />
          </mxGeometry>
        </mxCell>
        <mxCell id="dvdhT52j-xXcBjyd7pjd-25" value="CRUD System" style="shape=module;align=left;spacingLeft=20;align=center;verticalAlign=top;whiteSpace=wrap;html=1;" vertex="1" parent="1">
          <mxGeometry x="581" y="280" width="130" height="50" as="geometry" />
        </mxCell>
        <mxCell id="dvdhT52j-xXcBjyd7pjd-26" value="&lt;font style=&quot;font-size: 8px;&quot;&gt;System Service Application&lt;/font&gt;" style="rounded=1;whiteSpace=wrap;html=1;arcSize=50;" vertex="1" parent="1">
          <mxGeometry x="593.5" y="210" width="107.5" height="30" as="geometry" />
        </mxCell>
        <mxCell id="dvdhT52j-xXcBjyd7pjd-27" value="" style="endArrow=block;dashed=1;endFill=0;endSize=12;html=1;rounded=0;exitX=0.5;exitY=0;exitDx=0;exitDy=0;" edge="1" parent="1" source="dvdhT52j-xXcBjyd7pjd-25">
          <mxGeometry width="160" relative="1" as="geometry">
            <mxPoint x="490" y="200" as="sourcePoint" />
            <mxPoint x="646" y="240" as="targetPoint" />
          </mxGeometry>
        </mxCell>
        <mxCell id="dvdhT52j-xXcBjyd7pjd-28" style="edgeStyle=orthogonalEdgeStyle;rounded=0;orthogonalLoop=1;jettySize=auto;html=1;entryX=0.575;entryY=0.833;entryDx=0;entryDy=0;entryPerimeter=0;" edge="1" parent="1" source="dvdhT52j-xXcBjyd7pjd-26" target="dvdhT52j-xXcBjyd7pjd-5">
          <mxGeometry relative="1" as="geometry">
            <Array as="points">
              <mxPoint x="650" y="190" />
              <mxPoint x="650" y="190" />
            </Array>
          </mxGeometry>
        </mxCell>
        <mxCell id="dvdhT52j-xXcBjyd7pjd-29" value="" style="shape=image;verticalLabelPosition=bottom;labelBackgroundColor=default;verticalAlign=top;aspect=fixed;imageAspect=0;image=data:image/png,iVBORw0KGgoAAAANSUhEUgAAAvgAAAHWCAYAAAACbP04AAAAAXNSR0IArs4c6QAAAARnQU1BAACxjwv8YQUAAAAJcEhZcwAAFxEAABcRAcom8z8AALYdSURBVHhe7J0HWBR3+sfNXf7Xe09UdjAWZjDtvOSSWNhBk0vUREAx9ZKLGqXXXTTtSBTYpS5gl53ZpcouoEaNyV1yMb1JE0XshV4UkKJgYf7Pu4DBWTWogAt8P8/zeXR3ZxcszHz33ff3/kaMAAAAAAAAAAAAAAAAAAAAAAAAAAAAAAAAAAAAAAAAAAAAAAAAAAAAAAAAAAAAAAAAAAAAAAAAAAAAAAAAAAAAAAAAAAAAAAAAAAAAAAAAAAAAAAAAAAAAAAAAAAAAAAAAAAAAAAAAAAAAAAAAAAAAAAAAAAAAAAAAAAAAAAAAAAAAAAAAAAAAAAAAAAAAAAAAAAAAAAAAAAAAAAAAAAAAAAAAAAAAAAAAAMAg5TaOc//RCHf3H8ofAACAYYWT0+1jxz7+41HcY7+zu2eqPePI3zuac5rCOCr/oXDk3ew55fN2Ds6L7BycvRUOfCDjoFyqYJWvM5wy1N5RuXz0uCnLnecFLp/nG7t8zhLNW3M8tG+6emhec/GIVLst0fi7eWg8XT21L7t6aJ9x9Yh8aq5X5PSnvKL/Ps83mpvjuWL0Uwsif+nuHvojd5yPAQAA9MTOUTnZnnOeZ+/oNJsuUvLH5Yy9b8ofGY7/UsHxL8sfAwCAIcIPxo6d8kdmAj9B4eD0kIJzepxx4F9kOOelDKuMU3B8qoLl31dw/C6G448yHF/JcMqTCk55mmH5VgXLtzOc8iLD8RLj6CzZO07vdOIMaYzFR6Uxdz8qKRyU0qPPLZOeVa2R5vvHS+7+OsndTyfN842T5vnGSnN9YiQ3ryjJ1VMruXhqLrh6aNpcPDQtrh7aBhcPba2rp7bCxVOz39VD86Wrh3arq0ekfo5XZISLp8Z/rpd2Pr0hcPWO/Ou8RSvs3Rdrfy3/QwIAABhijLzbaZQdq8xhHJ1PMRzfxrB8C8M572VY5ZyexykcnJ5ROPCRVKWi23YOU+9gWL5KwfGBPY8DAIDBBMdxP1Lc6/SbkeyMcQpu+uMKlvdUcMoohuM3MqzyfwpWWcRwygoFp2zrDOaPdoXzGZagfsnu8H5JCvSdUrhnuJ7ylzl6/BSJdw+0hHlXz0jJ1atTt8uM6tQ7SprrHd2pT4zFeT6xluda9IuT3C3qLG8U6A0DHevqqWly9dQec/XU7HLzitzh4hEp0qcFrp5RL87xCJ/qukg7ij4JCA0N/YH87wgAAMAg4o5Js3/GsPx7ClZZyrD8tLFjH/zV2LudRik4ZYqC4xsZVvn37mMZlo9lWP7YiK6Ar+Cc/sJw/DEF6+xx2YsCAICNQuc4Bed0n4J1clFwyiCGU65hOP4DOpdRxZ3h+IuWUE4B/m4K8o/2CO/WwbyvvDzga/tceoNAIZ9en4L//IAEi3SbHnP10p5z9dCedvHQ7J3jqd3i6hUZ6eKlfcXFM+IxtyWR49D6AwAAgwiq0lNVSuE4je95P1VwGI7PtWeVyXZ3T/ktwykFxtH5BMMpWxSc88f27LSpYybN+DXD8QcVrNNbCpZ/y97RuYBx5D8czTpP7flaXW8EVttzfL6C5T+2c5w++9JjDp0XWIWD0zIFy+8e7TDt0Z7PBQCAG+WO8U5/GM3yjoyj8mmFI69lOOW7Co4vYji+jsL6mLsfsw7wlyrt1iG8P+3vgH81L30y0PWpgPwNALUDuXhqyty8Ir919dCYXDy0y+b6Rj3m5qkZQ9V++d85AAAAG6Crh3SPQuH0E+vH+DcUnPIgteIoWH6mHV0cWWWZnQP/yl2OU0ff6TD99wpWuV/B8XUMyycxHB9u7+j8NVXC7MZPtafXGDfOeaTCUfkNwzl/aM/ybzMsb1CwfL1iopMLPa5wcFpHF1mGVX7LTHReo2Cn3S//PgAAoDcwLK9QsM4ujIPTmwpOaWJYZTHDKS981/P+XZi/FSH+Wt6qgP99UvC3hP7uNQHUEmRp99GedvXQfOHmGbnO1VPj6+IZ6TTHP/Q38n8TAAAAtwCG4zcznHLniBHSbfLH7Dmlt4JTnrQbN30M3aZKPcMp87sfp8q8glMeVzgq11+6b9wMVsEpGxmWn0+36Q0Ewym/7H7ccp+Dk54+EqfFawzLr2JY50Oj7nUe2fMYAAC4FrQWyI5z5uwclXMt7YOc8iuG4yuoxcbSWnM3hfnpXRV560Bta9pqwLeyaz0AhXzq8386MNES/F09ta2untqjrp7abW6eUSFzvKOVczxjRsv/3QAAAAwACtZpe2fAt15UZc85+TAsf8reYfp4us2wSo2CVe7+/YRHLB/LdvfgM5xySfdzFAqnvzAsX0pVfstt1uljxtH5EPX0M6ySFqylM5zzHnpjMGrUQz9lWOVKe5b/uMeXBQCAK/ED+jTRznH6XIZ1jrN3dP4fw/L18kWugyXQyx00Af9KXtbf37m4t6vKf9jNKyrHxTPidRcv7ZTZi0N/Jv9HBQAA0A8oWH6dglPmjZg06f/kjzGsMoSC+J0OD/y+6/ZVAj7v2/2ckWOdRjEsX2bHKhdansPxXzGO/EH6uNyeU5pJCvn2rPL1SZMm/R/joFzDsPxnV/r6AIDhzYQJj/yS1vsoOOdghlPuULB8LcPxHZcWv1pabazD8mB0UAf8K0hVfvqzPB2QYAn9rl6RZ109tYdcPbWCq6fmxTmvLL9b/u8NAACgj2Ac+RcVrPIM4zj5XvljCo7/L8PxO6hyZjm2M+AX/vmee37e+fi1Ar5zV8B3/kLB8sYeL3sZlnYdBHwAQBd/GTvlj6MdnZ9kHPi1tNBfwSrPdbbbDO4K/fc51AJ+Ty+b4EMz/jtbempdPTQfunhH/tvVM+IBd69Vv5D/XwAAAHCD0EJZhuULGFb55Rhuhl3X3bdZNnHh+HPMBP6p7mMZ1ilGwSkPUGsN3b5mwO9q0bF8CsDy7TRbuvsYe4fps7t79O1Z5XoEfACGN7Q41o51fmEM5ywoWL6MQvylOfN9HOgVrFIaPWGaZOegtHrsVjqUA761kZbZ/TSfv/PPG3ne1VOb6+qp0bh5a//h7hWKsA8AADeLnYPzX6kyz3DOpQyrPMywzocZjq+155TBPY+z71zMdp5h+UN2rHI6bQyj4PgmCvHdx9wxZoYdw/JnGFbpb7k9aRLN2U9jHKfXMpxzrh2npFGZpbSAlx5nWGUGw/F7EPABGF5QQcF+ovJ5BavMYhz5E1Sdt1Tq+3HCzagJ06RR46dJDvf/gyZ3SSPHTbU65lY5vAL+d1rGdHZN6qEFu26ekefdPDV7XL208a4+GudZnprfyv/vAAAA6CV/vufRn1PfPOPorGEc+TcYR96qZYcq+7SbLcNND1c4zmCph552fBwz0elv3QdQf769A03fcbqv5xMtbw4cnSMULP/2XQ78pO77x7DTnrBnnV/obgMCAAxdRnGP/U7B8c8qOOdk2hmWptx0LpC9vlCvsFTiO6vxV9KOdLjcO8dNlbhJj0sePmpJo42Vlr32tjTZ2d0S+OWvfyscrgFfLoX97oW6lvDvGZXn6hkR5ealmebubsZmWwAAAAAANsDPfz5ykvIvY6asunPs1OMjJzhJo1lnadQEpTRy/DRp5Lhp0p2XnGrt2C7HTbMcP2q8kzSaXsPByRLkKdBTQLYnLa09ztJdd0+XxpL3zJDG39spPeblu1QymzdKaWmpUpY5U9JExkrj731UspvgZBW4B1oEfGsp4FPYpw233LyjWl08tN+6eEcFzfHWYIEuAAAAAIYkt9GO013eTi5evPj/QkNDf+Tr6/vj0NDQnwQGBv40NDT0Z8HBwT/38vL6hVqt/iUZGhr6q6VLl/7a39//N8uWLfutt7f37/38/P782muvjQwODlaoVKq71Gr1hJCQEMelS5feu2zZsknBwcF/DwoKmqJWq53UavV0lUr1eHBw8KylS5fOCQ4OnqdWq58ODg5+Rh3k//SyZepn1cFqj38t8NS5uL/4xT9mPyvNdPmnNNPlBWmWywvSbNcXpKfc/inNmfui5OL+kuQ2/yVp7tP/kuY987Lk/uwC6ennFkjPvrBIevafi6TnX3xFeuGlxRb/+S9yifTiy52+tMBD+he50EN6eaGntGCRp7TgFU9p4SteFhct9pZeWeItLVrsJXl5+0tr1q6RUlKSJVEUpeRko7QhKUma9ujT0p1jp1gF7oEWAf/adi7SjbNsuOXqpW1w9dBsnuupeWHewtDfyX8wAAAAADAEkSSJwu/tXUH3ZxRqu8Ls74ODg//02muv3RESEjJq6dKldgEBAWOWLVs2lgJtcHAwFxIScrdKpbpPrVb/NTAw8MGQkJCHXn311clLly6dplareZVKNSMkJOQfarV6ZnBw8JNqtdolJCTETa1Wu1sCrlr9vEqlejEkJORltVq9SKVSLVGpVJ4qlco3ODg4MCQkRKVSqZap1eo3QkJCQlUq1QqVSqVVq9XRISEhcSqVaqVarV6jUqnWq1QqUa1WJ4eEhKSpVCqTSqXKUavVW9Rq9XaVSvW+Wq3+ICQk5CO1Wv2ZWq3+UqVSfaNSqfLVavVutVq9V6VSHVCr1YfVavUxlUpVrlarq9Rqda1KpWpQqVRNarW6VaVSnSPVanWbWq0+o1arW1QqVbNarT6tVqvpuFNqtbpOrVbXqFSqarVaXalSqSpUKlWZSqUqVatUR9SqoGJ1cGCBShV8ULX09baAoJBzSzx9JU/vAMnDy19a7OHbFbQ7Xbi4M4AvWER6Si+TC7vC+gIP6aUF34V4CvUU7inoU+B/5oWFljcA859dYHlDQG8MXN1fklzmvWh5w/Ck2z8tbyBmzXleemLO89LjTz0rPTb7GWn6E/Ol0LfDpcyNGVJycrK0cWO6FJ+wSrr7wVmW3nx54B5oEfB771yfaMsC3c5Z+5qjbp5arauH9iH5eQAAAIYlQUFBfwgNDR1L4QbCazj+1Vdf5QIDA+8NDg6+VMkNDg5WUtilSq5arZ5NQZdCrlqtflatVv+TAm5ISMgrISEhnkuXLvVVqVRBKpUqRK1Wv6ZSqSzBVq1WayjYqtVqnVqtXqVWq9ep1Wq9Wq02qlQqS6hVq9U5KpXqHZVK9a5arf6PWq3+n0ql+rQr0O6iQNsVagtUKlVhV7gl96hUKgq5e9VqdbFKpdqnVqtLVCrV/q7ge0ClUh1Uq9WHKASrKKiq1Ue7PKZWq4+rVKoTarW6tCvMUkAup3BLIZfCclfgpeBLobmWgrBKpTqpVqtPqVSqegrIXSH5ZEhICIVrep3jXV+Tvhf6/grpz6FWq79Sq9Wfq9XqnRTcKcCHhIRsU6lUm9VqdZZard6oVqtT1Wq1QaVSJYWEhKwNDg5epVKp4lUqVQy9SQgODg5Tq9VvBQcHv9H1JiJYpVIFBAcH+6jVao+uNxz/UqlUL4SEhDwTEhJClXf6d6N/v5n0xiUoKOhRqtAvXbpUGRwcPE2lUk1WqVQPh4SEPKhWq/9Gb3yoqv9qcDD3uue/RqtUvncFvBk9K2BFUnJARHJ5kCblwuJXVzVyDzxxbsJ9j0oT7n9Uol/H3TtDGnfPDEvbDLXQUCvNGEfnS1NyunvqqV+eWnCoFYf64ztbeK7QutOjtYeOuUx6nsw/j5ksPTjNVVoRESUl6fWWcP/UvIU2s9AWAf/6dfPqXJw7PyCeJvE0u3hq35vnHfUcFuYCAIY1arU69q233pJCQkIgvKpqtVpSqVQdKpXqvEqlau+q8loqvBRiuwJtTVd1mEIwBWKqGB+hAE2BmgK2Wq0u6gqzFMgp0H5NIZ2qzyqV6hOVSkWV6A+6QvyOrio1BXsKuNlqtdpMITc4ODg9JCQkpetNgKBWqzd0Vbyp8k1vFOgNg6Y77FKlnMIuVc7VanUgVdKpok5vPtRq9QKqtqtUqueoxUSlUs1VqVTUcjKL3rjQGxh6I0NvaKiSHxwc/EBQUND9VOUPCQlhg4KCxi9btmwMtbUEBgaO9PLy+gt9SkCfFoSGhv6C2mTokwR3d/cf9minoQXlt8l/Hgcj3lGbHvbTZCb4aTJL/SNNUkBUlhQQaZL8I01nHnzsXyfuvGuy1WLXS15hcWynnWFfHoD7QnrDQG8yJk93lyY+MNMS/OXH3CoR8G9OqurTjH0av+nmFVnksiTi1ae9Yyy7sAMAwLDCz8/PLjQ0lFoQILyqFGqpcr906dL7qXKrUqnuCQ4OnkjtLEFBQQ4UcgMDA6nSP2bp0qUMhd2goKDRFHgDAgLuePXVV/9MbTEUfAMDA39H4dfX1/dXXQH4ZxSCqZWmq398yITfocrC0KTf+YVvfM5fk/FRgGZjm1q3RQqMNEl+mgzJLyLdYnBs9sX5nuEnR42fclYeZG+1dg5Olqo9fUogf+xWioDfN3buoEu9+vGSm3d0lZtnVJKLd9TD8v/HAAAAAADDHq8ow1/8NBmBAdqNuYFRZik4NkcKiMy8FOp7So/7hqfWcX+fU0+bSsnDLLQWAb+vjZTm+XTunOvqGdnu6qXZPNcras6IziICAAAMH/R6vUKv188VRdHZbL72vGG9Xv9Lg8EwKzU1dZ7BYJguP14UxbszMzOfEQTh7z3vBwAMLrwjkscHaDNDfSPSjwXHZEvBMTmSf49q/dUMijJ3/OOZ4BOjxk25KA+z0FoE/P7TzbtzUa6rd+QFV8/IT+Z4aJ573Df0V/L/6wAAMKSgiSNGo3FpamrqieTk5POCIPzHYDD8RH5cNykpKWNFUfxMEIQLRqOx3mAwtAuCkGkwGH5Dj+v1+mmiKO5PTU39yGAwHBEE4cXu565fv/5n69evx661ANg4vuGpnJ8mXRcQmVmuitssBUVn9SrY9wj40oJX19bbOzqf6Z5VD68uAn7/27mJls7yd+zmFfntXM9oD/fF2l/L/+8DAMCQQK/XL09NTZUMBoPWbDb/5VrhnvqjRVHUGwyGJlEUH0hJSfm5wWBwNxgMNFvanw4wGAxmQRDWdR0bJIriJ3T/unXr7hJF8Z21a9eOk78oAMA28ApLuy8gMnOlf0TG6e5gLw/vvTFAu5FaeFr//thL5aNsZFKNLYuAP3B2bqBFQT+OJvHscfPS+sxbGIt5+gCAoYPBYHAQRbFJr9dHyB+7EoIg/FEQhGNdAf4Soih+KQjCe/R7g8HwX1EUVV33zxQE4fOEhIQfi6IoCoKQRr/v+VwAwK2HKvb+kZmrAiJNdSHdC2cjel+xv5Kq2OyL7h7hlaPHT21FFf/aIuAPvJYFuX5xlrDv6qktnucT7YURmwCAIYHBYPDQ6/UnBUF4VhTFsJSUlBhBEGbLj+smKSmJFUWxMSkpKaTn/aIopgqCUES9+Hq9fqkgCHlGo5Fe8z+CIKxMSkpyE0WxcP369XY9nwcAuLUERqSM9QvPiPXTZDSo4zZbFsjKg/qNGhiZKfmEpdZzDzzZhMW21xYB/xZqqeh3Bn0376h8F6/IBe6hoT+S/6wAAMCgQRCE2LS0NOqhp6p8niiKB1JSUs6JovjalcYV0uJZQRBa9Hp9kOz+9aIoHqE+fGrx0ev1uoyMjI9EUTQYjUZHQRCowv9Cz+cAAG4d3pEZd/pr0t/y06RXquO2SIFRVLG3Duk3a2CUqePR+UG02NYq1MLvRMC3Bbtad/zi6PaXczw0cxcvxpoxAMAgRBCEjampqWdEUXyux31Joii2UrX+8qMtffR36/V6q4AvCMIGURQPUwtPz/u7HlshCEK2Xq9/jAK/wWCIT0lJsZcfBwDof3xDE37lF5Hu46/NPECjLm+0x763BkWbOxaErK5lHJ2bGLTpXFUEfNuxu0d/rne0RLvjunhGPCb/OQIAAJtGr9dn6PX6Epqk032fwWB4SBTFc9Ric/nRlrDOCYLQJAiCvEXHIAhCSWpq6mWjx5KTk6eIopgriuIC+oSAwr0gCFsFQXg/ISEBY8oAGDhu849IfTZAm/l157jL7Jvuse+NtNg2MMrU9MD0F2pRxb+6CPi2p5tXVOd4TS/tOTefGOOTnlH3yH+oAADAJumqrp9MSkr6c/d9er3+4asFfL1ef6cgCBWCIMT3vF8URWrH+bjnfTQSk+4XBCGQJuwIgvAh3U/Ve0EQjoqi+NeexwMA+geft9Mm+2syttHCWVVs7+bY96X0Nd0WL68YNW5qOxbbXlkEfNuVxmvOD0igX+vcvKPCH3853OqTagAAsCm6q/WiKGq67xMEwSgIwunucZYbNmxw3LBhw3j6PS2iFUVxkyiKZUajcWSP12gTBOHfPV6aXud1mpdvMpl+SuMyaZpO1/EOXT3/9/Y8HgDQt/isSLH31aSt9tdkNNMCWn/tRqvwPRDSjrc+K1JOsn97st7OAYttryQCvu07zydGmu9vWYi7z9U7ctHjvr6YCAcAsF1oQa3RaGwVRbFEEITDRqOxWa/Xe9Bj6enpv+1aPPtpaGjo7XSfXq+/n/rtRVE8ZTAYdhuNxkZ6PCUl5U/dr0nH0nx9QRBm0G1aaCuK4u6uGfmfiqJoogp/j28DANBHLA5d/zOfzj77UlXcpq6Rl9bBe6CkTwyCorIuzHAPKB05brJVuIUI+IPHzok7XZtl7XRbEj5Z/vMHAAA2g8FgeDw5OTlCEIRwURSndt+/c+fO241G48tJSUmXFuESRqORNq16LTU1NYLab5KTk3/f8/ErkZycfL/BYFhBM/LT09P/IH8cAHDz+Gs2Kv0iMnbS4tnOPnvrwH0rDI7O6nhRlXhKwfLNaNOxFgF/cEn9+e7+8fRri4uHNnGO54rR8p9FAAAAAICbwjtUf6e/JmNlQKTpjCp204D32X+ftNg2KNrc+IDzP2tGjZvSIQ+4w10E/MEpTdrpWoh71MUj4iWnrk+6AQAAAABuCl9txvyASFOJLbTjXMvg2Gxp7uLlpaPGTzmPkZmXi4A/mO3cEXeuTzQF/a1PLYnm5D+jAAAAAAC9wlOTPsZfszGNqvU0qUYeqG1NevPh9ZahccJfZ562c3CyCrnDWQT8we+lsZqe2ipXT63K3R274QIAAADgOvDTpC/202Qcp11oA7SZVmHaFqU3IsHRWW3T5/rRYlu06fQQAX/oSP+G8/xiJVevyPddPbQPyX92AQAAAAAuw3N5MusbkbYxMMpsU4toeyu16bykSqhhOP40Ftt+JwL+0JJ2w6XZ+XO9ok5SNX/24lBMjQMAAACAHOk2n/DUF/wiMsrVui23bKb9zUrfd4A2s+mvTk/XjxqPnW27RcAfmtLsfHc/HbXv7HjSS+so/6kGAAAAwDBlSZhxpJ8mI402jAqKybIKzYPNoGiz5Lro7eOjxk+5KA+6w1UE/KGrpZpPIzV9YqpcvaO85T/fAAAAABhm+GkyXP01G4toJ9rB0mv/fQZGmSSPfwunHf46sw6LbTtFwB/6zvOlSTsx0lyf2DQ3T80Y+c86AAAAAIY4gYGxP/XXZCwPiMw8Pxgm5FyP1Kajisk+o3T1rh459hEstkXAHzZSNf/pgETJzTPymKtHxFPyn3sAAAAADFH8wo33BGgzPwyOzbHpufY3Iy0QfkmVUM6wztjZFgF/2Elz8109I8+7empj3L1CfyE/BwAAAABgCOEbkfK8X0R6lWUhrY3tRtuXUhXfX7PxzP3Tnq4bPX6qVeAdbiLgDz9pY6z5AfFU1d/x5KLlWIALAAAADDUWROp/6a9JWxmg3dgRFD34F9L2xqAoc4frwtDSUeMwTQcBf3javQB3rnfMCbfFEU/LzwsAAAAAGKT4hBsc/LUb31PRQtrIobGQtjcGRZlpse2pCfc/MewX2yLgD2/d/eJolOZ5Vw/t2/MCY38qP0cAAAAAYBDhG546LzDKdEIVu2lIt+RcSfrzqmJzziqf8qwdOXbyBXnoHU4i4MO53tGWmfmunpHvP7kwYqz8XAEAAAAAG8fdbP6hX3haiL8m44IqZmhNybkeabHtP4Pjy+1Yp7bhvNgWAR+SnTvgJkqu3lF73ZaET5afNwAAAABgo3hE5/zJX5ORQr32NBNeHnqHkwGdO/K23jd1ftXoCcN3sS0CPuypZfdb7+h6F89ID/n5AwAAAAA2hr82mQ3Qbvw6hKbkdIbb4a0mXQqOzr7w1II3q0aOfWTYtukg4EO59H+BdPHUxj3um/Bj+bkEAACuyoQJj/zSfsL0u+0cnP9qdzc/iXHk7x079sFfyY8bw84YZ885udPx8sd6C8M5hTMsHyu/H4Dhgl946nQ/bfox2pXWKugOY+mTjMVv6k+Nu//x+uG62BYBH17Jud5RndV8r8iNLt4Rv5efUwAA4IrYOzjNZhzpAqNsYTi+geH4M/aOzrkMp3yp53EMxy9WcMo65m5+Qs/7rweGc9rOcPxO+f3d2DkqJ9tzzsEc54RNP8CQw1+bviQg0lxPPefygDvcpcW2QdHZZ6fOXlw1auzki/LwOxxEwIdX080rSprvr5NcPCK/fcpDc7/83AIAAFYoHKa5Mixfr+CcHldMcGLsHaaPZzjnUAr6DMf7dh/n5OR0+9ixj1Nl/weXv0LvYVhlFsMp35Xf342CUwYxLH/qjkmzfyZ/DIDBSmho6O1+mvSIzn774THf/kYMjs6S/hmoq1A4KM8Nx8W2CPjw+6R5+W5e0RWuiyMel59nAADgMijgK1i+eiQ7bdxl97NObyk4vo5ac+g2wyr/znB82Cjusd/RbTtHp0UKThnMOChfYlg+m1p8LPePn2qvYJWJzMTpOQzrHDFmzKN/6n5NecC3Z52nMixvGM1Om6pgla/bO07PY1i+meGcsxWOzvyoUQ/9VMEpo+043rn7OWO4GXYKjo9nxvH3Wl6z85OFIDuW/yfDKnO6vw8AbIHFoet/5heRkaSKzZECI4f3YtrvM0CbKfmGp529b8q86uG4sy0CPuyN1K4z1zu6wXVJxPPy8w0AAFyiK+DXjJow7e6e9zMsr2BYvo7hlEsstzl+McMpz9iNf9S+6/GNYyY+KilYZbGC5d+n3n3FRCcHhuVL7DnlJwzHb2QcnfcyrPKL8eOd/tD5nO8C/jjO6T6GpZYgZeqYex7+E+PIv6jgnD9kWGWDPeccreCc7hsz5uE/MZyySeGgDOr+vkY5Tn9AwfLnxzhMc6Pb9qwyY8zEGZbvg+F4ev7fL/0hALiF+IVn/NkvIn2LZb69dvhsXnWjUptOcGxO++yXXq0cOXbyOXkAHuoi4MPeSv9H3Dwjz7su0QTKzzsAAGDhagH/jkmTfsZQeHfktXSbAjjDKcsp+NNte1aZzLDOh0bd5dS1GUfoDxQUsDknofs1OI77kYJ1OkyVfstrsMosewelSeE4jWVYJd1vUiicftJ9vMJR6UWv2d2iM3rCI3cyrPKEwkHpdekYdvr9ClZZQ2sH6LY9yxsZR+eDdzpMH999DAC3Gt/wVC5As/FLddzw27zqZqQ2Jo9/C9Xj7/vH6eG22BYBH16Pc32ipbk+MZKrR2QstQHKz0EAgGHOVQP+HZN+puCUe+xYPoZuywM+wyrTGYfv2m3u4pzGMixfy7DO2Qyn/LeC5d9mWP4Ne8fp5XQsHWPPKVMYli9gOCVV9r8c9dBDl23H3dWDf8R+ovOf6badw9Q7vi/gKxycMhmW397zdQC4lfiuSHkkMCprvwqTcm7ADCko0nRhysxF1aPGTbEKwUNZBHx4vVp2vvWPl1y9tJmzPDW/lZ+LAADDmKsFfAeH6b9XsJZA/wbdvlLAp9ac7uOpRYdhlacYR/4gwyq/YVjlLoZVfss48p8xE5wsi3UZVplEbT2Mo3M7Bf3RE2bc2eNL3lDAZ1jlRobl3+v5OgDcKnxXpDzur91Yg3B/4wZFmaXnA2LK7SZMax9Oi20R8OGNSDvfPh2YSJN2ts9eHGpphwUAgKsGfMaBf4xhla00Xcdym1O+dK2A39V2c0rh4PRMz9fpCYVxe065X+Hg9BDjyBcwLL/NfYT7D7sf7wz4zofH3NO5MLerRafMzoF/pfsYO86ZU7DKagR8YGt4haXNCYg0nQyOzbEKrbD3BkRmSn7h6afvnexeOWoYLbZFwIc3bqQ0PyCBfr9z9mKtnfzcBAAYhnRP0fkL+7AluBOdozL5fYwj/153jzzDTb9mwKeJNwyr/Irh+C979tXbO0x7lMJ/13OyFBy/hX4/hnOaomD5dsaRV3cfy3DKpQqWL/3zPY/+nG7f2fkpQinDKiO6j6E3EAyrbBnDOj/R9ZoI+OCW4x+R9rS/NrMpOAbhvi9UxeWcf+K5kLqRYx85Lw/CQ1UEfHhTenWFfK/IL9y8oi9dzwEAwxT7CU7z7GkKDaf8gGGVGQqO38ZMnH6YcXT+38ixTqO6j2O46YtpNv53U3SUWxmW/7Lna1FopzcB9pxzoYLjMxWc8r8Myx9jHKc+ZvlarNP7DMt/9t1rOi+1XNxY5ZzO2/xTNCFHwfGfK9hpFOBvY1hnDcM5t9AbAwWnNDMsf8jecbpk7zi9q4LvtJ1hnb/o8W0AMKB4rUj7Z4DW1IINrPpOatNZ8qZQMfbex5qHy2JbBHx4s1K7DoV8N09tnot3BAZPADCcsR/vfA/DKYXOQO5sZljnDHtu+vMjRjhdtirfzpF/hGH5GKqq022G419ROPBWI7rsxk0ZY5lT7zg9S8Hy6+zvnn6p9UfBOnkyrNK/+3bnlB1ey7BUxZduo/vsOScfhpuRPdqRt7wpGDv28R8rHJwDmIkzshWO/KoxrHK6ZQGvY485+A7OAd2vCcBA4huWuiBAu7GNpr/IQyq8cWnyUGCk6dzkmYtKh0ubDgI+7CvnB8RLbt6RBU8g5AMAAADXh68mdVGgNrNX4d43PF3yvcL98OoGxWRffNpbWzdq3JRh0aaDgA/7Utr11tUzcu9TS8I5+bkLAAAAAFfAT5O+OECbee77wr0l2IenS0FaqkqnSz7h1sfAK0s7//pGpJ+6+5G5NcNhZ1sEfNjXWkK+V+Q+hHwAAADge/AJN73ir828EBSdLflGZEh+mo1X1DdioxQcmS7FrTFKG/QGadV6o/RGbCpC/nUYHJtz4YnnQ8pHjpvSLg/EQ00EfNgfdoX8YhdPrWXYBQBgGKBSqf4SGBh4b3Bw8MSBUqVS3RMUFHS/SqW6D8KBlv7v3cj/+ZCQAMcgHx+HgLcSAwPDDG3BmhTJf4VwTf2WC1L0SlFKMYqS0dD567okgxQcmYaQ30sDo8zSK29sqLG/e3rbUF9si4AP+8vudp3ZPuEO8hwAABiCqFSqt998800pJCRkQFy6dKmkUqna1Wp1tVqtroXwFlitUqma6f+i/P/n1VVLquCgs6qggEZ63tJlyyS1SiWp1eqr2/X42jWrJaPRKImiKBm6fC0mVfJGwO+V/tqNUkDkxvZHnlhQOtR3tkXAh/0pLbx19Y4scPPUjJFnAQDAEIMqk2+88cYzwcHBA2JISMgzKpVqjlqtdlKr1TyEt0D6vzeT/i/K/39eSbVa/fRSVaBr4OsxWSEReilo+Vop4K1VvdI/dJUUs0qwVO4NPSr4qsg0S1++PMzCKxvcudi2ZvT4aa1DeWdbBHzY31Il380r8lvMyQcAADDs8YjcPDUgKudYQFS25KfJ7LU+mkxJFZku6dYapQ2CQVqzwSC9iR7865YW2/qFZ5x0fMi1YfSEaVbBeKiIgA8Hwq4dbz93fSXsDvm5DgAwRFm1atUvUlJS7Hfu3HnZDPzuxwwGw32pqal/3bBhg2Wzq+9j7dq1I+l4vV5/f0JCwq/kjyclJd1jNBof3LFjx4/ljwFgC3i/nfKon2Zjw43uUNsd5tVRaVKgFr33N2pQdFbH48+qqE3nojwYDxUR8OGA6NUV8r0iP5gXGPo7+TkPADCEMBqNvCiKcampqd+IorgrPT39Dz0fNxgMDxmNxq8FQbhoNBrbkpOT641G41Kz2fzDnsf1RBCEF5OTk8uMRuM5URQ7jEbjrqSkpEldD99mNBpfFUXxiCiK+0VRNAmC8EfZSwBwS/GKSPl7YKSpMjh2k1XgvB5p/j0Fe7Tl3Li02Hbha+vqxkyc0TxU23QQ8OFA+rQl5Gu3PrUg8pfycx8AYAggCIKr0WisFgThG4PBQL/uS05OtuxWS4iiOFoQhHKj0fgtVfCTkpLGGo1GXVpamqTX6+de/mqdGI3GewRBOGM0GtPWrl07zmg0ThJF8YAoil+HhobeTvd1hftHDQbDXwRB2CsIwgv0XEEQFgqCsEz+mgAMJN6hyeP9tRkH1HGbrcImHHgDtJlSQGTmmYf/8XLFUF1si4APB1I3r0hLJX/OkgjB3d39qsU6AMAgRRTFcYIgONHv9Xr9Or1ef7hnwNfr9S6iKLbq9frp3fetWbPmt6Io1hgMhtXd9/VEFMWloiieXrdu3V3d9yUlJS0SBKFdEAQuJSXl74IgHIyOjv45PSYIwhaDweBhNpv/Iooihf1nL3tBAAaQoJj0P/hFZHyuQri3KYNjcy7O8wivGj1+2pmhWMVHwIcDrZtXlOTuFyfN8dS8JT8PAgCGEIIgGARBONQz4K9fv/7Xer1+gtls/lH3fcnJyXaiKNbr9Xr1pSf3QBCEJGq9SUlJsQR4Qq/X84IgnBVFcQ69viiKxYIgBAiCMEMUxUNGo/EJURQTRVE0XP5qAAwcwdEpP/eLSNvcWbnPsAqZ8NYZGJkp+YWnn+T+/lTD6AlDb2dbBHx4K5zrEy3N9Y7qcPGM8JCfDwEAQ4QrBfwrIQjCOoPBUCEIwhXn6QqCkEaVeJPJ9NPu+0RRfIDadkRRXNJ1200QhHyj0VgkCEII3RZFsXDlypXX/NoA9BehoaE/8A1L16vjNkn+tBvtFUImvIVqMqSgaLP0j2eCh+RMfAR8eKuc5xMjuXlHnX1qiXae/LwIABgC9CbgC4LgLYri+Wu10ej1+lQK+OvXr/9Z931JSUkPUsDX6/WXqgT0qQC9CaDjRFH8xGAw+BqNRteNGze+KYriPy69IAADgF94WpgqdpNlcyWrcAltwqAoc8fLS1fX2Ts6Nw21Nh0EfHgrpVaduT7RdS6ekZaWXQDAEOL7Ar7RaJxvMBguiqL4mvyxnoiimCyK4r6eAV+v1z/cVcFfcPnRlq8bLghCjsFgUNMbg9TU1DRBEA5TVV9+LAD9gb8m7V+BUabOmetXCJbQNqTFtkHR5qaHHvtX1VCr4iPgw1utu2UjLO1hl1eiLq2fAwAMAa4V8A0Gw+MGg+GcIAhR8sfkiKIYI4piRVJS0qUZu3q9/ilRFNtpck7PYw0Gw2RRFPcYDAalIAhfGI3GF7teY40gCOaexwLQH/itSJ7ir91YHxSdZRUooe2pis2R5nmEVY2aMPXsUKriI+BDW5B2u3Xx0H7wvK/13jUAgEHK1QK+IAhTKLAbDIYVPe/vZv369f9Hm1/Rr3SbxmeKoih1j74kBEEQRFGsTk1NvbR7Hi3gFUVxpyiKb9CYLlp42121FwQhVhTFTd3HAtAf+ISnO/hrNx4Kjrm5Wfdw4AyIzJR8wlJPsQ882WA3hHa2RcCHtmGkpZLv4qERnUJDrTa9BAAMQkRRzBIE4WTPja66JuZUm0wmCuzv0DEUvA0GA/3ekJSU9GeapZ+SktKYlJRkCec0PUev129KTk4+bTAYtgqCsLOr+h/Y8+sJgkDjMtMp6Hd9/RhBEPKSk5P/LYpiSfeCXAD6A++ITb/302R8pdZtsQqR0Hb1p8W2UaYLjz0TfGLUuMlWQXmwioAPbUU37yhLyHf10L4tP28CAAYhgiC8LAhCxKpVq37RfV/XRlfrUlJSqAJvEkUxmzQajTmiKIoZGRl/po2tDAYD3Xyg+3lms/kXtFstHafX68nnL32hLqji33M3XHpjIIpiaHp6egrNxb/8aAD6Fr/wNIHCPQVGeYiEti21U70csqrB3tH59FBp00HAh7bkXMtknejzLovDsRYOAADA4MB7RXJQUJRZCsDEnEEpTToKis5qfHD6C7Wjxk3pkIflwSgCPrQ15/nFSa5ekeVzvMLuk59DAQAAAJvCV5M2JyjKdCYwymwVHOHgMTgmW5rrEXZi9Pip5+RheTCKgA9tUXd/neTiqc2b55vwR/m5FAAAALAJfFak2PuFpx+jeffywAgHl7TY1vNtQ4vDpNmNdg5OVoF5sImAD23V+QEJlkW38vMpAAAAcMtRR+p/6Ree/h7C/dCQ1k4ER2e1zXAPKBs5dvAvtkXAh7YqLbqd6xMtPfVKhJ/8vDqUsJvAP8Jw09coOGWyguNTGY7X2ztMny0/ri+YNGnS/ykUTj8ZMWLEbfLHrgTD8tPGTHxsFcPxT8kf60bh4PzMmIkzVo2Z6PQ3+WMAADBk8QtPi1XHYVHtUDI4JrvjX+qV1Ywj3zjYF9si4ENbdp5l0W1Ui6uHxll+bh0qKBydA+wnPiopWP59hlNuUnD8Bww3vUzhyGeNGTPDMu2vr2BYZ3/Ggf9w1Kh5P5U/diUUE5TB4+6fJSk4fhfHcT+SP37HeKc/KDjl8c5jnP8lfxwAAIYkfmGprgGRmecDsFPtkJIW2wZGmVom8c/WD/adbRHwoa1L/fiuXpG7n/QL/7P8HDsUYDjel+GUx+6YNOln3fcpHKY/rGCV1faOyg2XHz1iBIX+MdwMu1HcQ5c29bTcP2nGr//IOVmmEdo5TL1j5N1Ooy496O7+w7scp45mOOfV9g7K46MnOv1t7NgHv3dTMfre7DnnswqOb2Ic+Mfkj4924F9kOGUHwzmfs+f453o+9ud7Hv05fZ92Dv+4tA+RBXf3H469b4plbQV9onCX42Ojx47tvC3HfqLzn+k1FPc6/Ub+GHHHHZN+Rs+3u3vKb+n2+PFOfxg79vEf9zyGnnuF17iN3pyMGOF0+4gRoT+g11BwTn+59ByF00/ovjH3PPynHs+5RPf3TX/PPe+nv1P6d+j8/ZQ/jr378VHy7wcAMMjxDU/l/LWZpbQoUx4Q4eCXRma6vbL8xOjxUy7KQ/NgEgEf2r6Rlp1uXT01GZMWL7ZsbDmUoBCtYJUnegZMy/0O/CsMyzfYT3S+p/u+0Q7KlxhOeZjpHNVbbueg9O5ut2FYpYbhlF8yHL+W4ZQnGU55QcHyWWPuefRPo0Y99FOGVWYxnHOtguPbGEe+eIzDNNeeX+9KMCyvZjhlHsPyXzKcMrVna4+Tk9PtCo5/X8EpP7HjlMcYTvlSj+fNV7D8bobj6ftsseOUwp0O0y2bmU6YMONOhuN3MSwfy3D8NoZzbrV3dD5lzzn5dL8+/V3Ys8pEBcfXMo78aYZzPmbHKS8be85MVDoxjtPz7DnnMwpOud+OU65hWL6YWp4uHcPxixmOP2b5++KcjzMc/wrdTwGdYfnt9pzSpOCcsxmOb2E4/gzDKf9txyqnM5zyU/vO+xrtWeXrHOd+6dOLMRNm/M2ec97JsHyzglPSn29955sF+nrKpV3/BmEKli+lNz4Kjv94tCN/V/fzAQCDmNDQ0Nt9wlL/i82shq6BkSbJ621jg8OkWbWDebEtAj4cDM6lTbD84iQ3D42n/Hw72LlawB/JzhinYPk6hptuCc4KzulZqupTSLVzcP6rPefso2ApQDu5WB53UEbbO06n8b3hdo7Kyfack7uCVTYyDk5pFJyp2qxglYkMqzxAz+e6qv3XgmGVIQyr3NX5K19m7zB9fPdj9pzzgwynLKfvhwJ2d4sO46B0ojcY9qzza5bv09FptoLecLBKDT1Of0768zIsX07PsXxawTknMBzfZH/3tLstr8Ep1yhY/oD9ROdH7Rz4SfacMophlacU7PT7La8xwYlhOGWFguO32U2Y+oj9xGmPKlj+M4bjzykcpj1Mx9ixyoWMI1+l4JxeptdQcMog+vsYwyqnd34fyk8poNuzzgsVDk4PMZxzqL2jM/39HbV3dFpE9ylY/i0Fx58fPdH5Ucuf2WH6eAXLH2JYftWYCU5/o081LH8WTqmzfN+OvNp+4vQOBadMsWedpyrGOz1Of0e0vqL77w0AMIjxC0sLpco9+u6HrpbFtjHZbfxc35o7xz4yaGfiI+DDwaKlH98r8qTLkrAH5efcwczVAr79xL//WeGgPGHHKv2orUXB8t8qHJUrex7DcPwOBac0W37PKnUMx+dRy0n34woHPlDBKk8xE/gJltus8+sMy++m9pmer3M1Oiv4fNHI8c73KDi+iHFQLu1+zI7jVzOs8iN6baqSKzj+Zbr/Ls5pLIX2y1/HWWRY5Rf0e2p7oT+vnaMy5LvHeQXD8nXdVXp7dtrUsWO/azGyPE5B2ZG3vMFjWCcVvdmhoH/pmAnKfzAcX8ewyr9bFhNzykJ609P9uOUYjv+QYXnDiNDQH9AnDwqWT+p+jNpyGEt4V16a3ERtUAqWr7ZjO79Xe46PZDg+v2uhcudrskp/+vPTGybLGyFOefSOSZ0V/a7H4xSsstDJ6bvnAAAGIb4Rxsf8NRsvoO9+6BsckyO9pEqspI93B+tiWwR8OJicHxAvzfGIyHvhheheBdTBwNUCfmfPPE/nl8XU182w/FFmovMpWtSqYJWl9Ks9N/2cglX+x/I6FCQ5/uuePd9jHJWTFayyhnFU/oNuU0WaYfk93e0y34cl4LN8CfWWK1j+bQqqI5ycbqfeeAq19o7Oi8Zwk+0UnLKxZ4uOPTf1QYbl37OEYY7/mnF0rqFWFXrMEvA55XGGUy7pPn7s3Q+Ook8I7Bw6W2joEwcFxwcqOD5X4ch/wzjyBYwj30Z/F5bvi1MKDMd/2rNlyJ6dPoNCP1XrqS1JwfJlDOd88rK/L8fp5+1YZQ4tGFaw/Me0JuHS9zD28R8zLP+tvQMfeek16c/J8lUMpwyl2woHPtPe0fmM5Q0Nvaaleu9Mn06cpE9IOgM+v2fsg49fWt9g76hcrmD5PWPGTOrTBdMAgAHklbDUO/w0GQXBsTlWYRAOPWlH4gBtZssk5bM1o8dPtQrPg0EEfDio9IrsXHS7JMLS7jEUuFrAt3ec9gAtblWw/MxR3GNUSS6155TJDMv/k6FefAflS/as0wt3dVXLFRwfLw/4nW0myhoFO+0Jy+0bCPgKVnnA8gZjAj/BsvCXdZpBPfYMqzxGC1cVjtNYhlW2Mo78i/QcaoHprKTzMdTCQqM2FRy/heH4zy2PdwV8haPSq/vr0JsEhqVWls5PARQsv46q6Xas8wv0fDtH5Vx6s2Pf9RzGUSkyLL/zsoDv4Pxod8AfNc55pILlqYVHz7BOl/6+6BMCe8fpD1jCPMd/SusVup/fuU6Bz6Xvu/u+rnaiaurNt9xmlVsVnPJb+nvvfk3696B/I8trOjq9wbDKYru7Z1kW/RLUMqVg+aLeLGoGANgofuFpSSHoux9WBkWbO1wXvVU+WKfpIODDweZc72jyvKunZpb8HDwYsQR8Tnm8exLMpftZZRLDKY9YRlFa2keU1D4S1/OYnihY5UoFq/ym531UVaf+91EOThM7j3FeTi06d0yafWliz7XoDvhUye66TQtSNylY5f+on5/usx/vfA/DKlsYR/6flmMclXGMo7JY9jqr6c0H/f5aAZ/CMk0TYji+QuHoFND9+G8nzfi1gqNFq7wv3VawytfoNf485tFLU25ocayC5WtpbQBN17EsruX48O7He9LVjkM9+9cX8DllEn2a0P24HAXr9BYCPgBDDL+w9LkB2o0XArSZViEQDl0Do0ySx1tCw/i/PnFyMC62RcCHg1Gq4rt5afc85R15p/xcPNiwjMlkLYtB76PKs6Wn3ZFfSdNueo6epFDLcM7nqco9jo67myrqvFHBOVkWtyoclFGWkZYsv2Ds3U6jaIFrZ8hVbqOJN51fS/lvCqyjOOcHe7vIVuGgPNQ9DlLhMM2VcXSmc8dZav+x3Mc53cewSppAY2nRseeUwbQwlWGVc6hH3s7BaRHj6NxKi1rp8a4e/FI7zjIByEJXwK+kiji1ACk4ZRHD8R9RPz/9fdixygz7iTMkhnOytPAoxs1g6VMCe9Z5g6VFyHEaq2D57fR9UQ9+5/elXKHg+HP2E5XP09/raJZ3ZFg+jT59oMo/w/Kf0ycF3d+DJeA7KPNpuk/3fV0Bv5bak+g2LV5WsMp2eh61UHW1Ub1px/Hx9DjjyFMFv+SygM8qIxQOyr2dI0xDf8A4Kp/uXujL3G35dONZy6jOu2khsNO/Rj30UK/2KAAADACeK8TRvuFppdSTLQ+AcGhLi21VcTlneBfvqpFjJ1+QB2hbFwEfDlapH9/FQ6OXn48HGwrW2cPecYZEE11oLKaC5VuYidO/UEx0vmyMJbWAKByVy2nUJY1v7DxW+c6l6rxl0gxfZccpd1j67jn+ooJ1/sLeYcp3k28si2WVxxlH/mJ3S821UDjwyxhWeXT0hEcsb6QUCqffKDjlAap+00JWy32WgM/TOEhLe01nf76SduQ9z3D8BYZVfkbh3o5TltDiXpoPz3DKSruuajzBsA8rGFZZ292Db0dtQNz0vQzHd3ROz+GzFBxfY++gXNH9nNGOzk/aO04/bhmTyfKHuj5VqO5+40GfUihoUawjf0ph+ftS1jOcMmcMO23ciBHuP7Tn+K8V3HeLbLtGie6mVqfu+7r66usVnPOlr2vPOc1jOOcShv6daH8Azjn30iQjln+b4ZQHewZ8hSOvpXUM9PqWf0NOud/+u4XRBoZVHqYxnPSGhL4WvWHpfi4A4BYiSdJtvuGpyeq4TVbhDw4PaWLSS6qEcgWrbBtsi20R8OFg1c07WnLzirr41BLN985zt2Voc6YxE2f8jSbP2Dnyj1DlveemV3JGcU5j6biukZGXetA7W3T4z+zspvyW+syp/75746ueWDZ9unvGQ92z268FVbDpDUR3mCfsxk+1p8p19236Xul7kfX130bBX+Ew4yHamOv3Ex75pYKddj8tbqVPE+wnTL+7e7Mrgu6nNx89vyd6I0DfZ/foTArmduMfte9+nKCvSX9W+p7s73aiRba1d02YemkOPkGfANzl+NgjjCN/73f3hv7A8kkJyyt6HPoDheMMlj796L7DMi/fkb939IQZl31SNGbMw3+yjPd0mPYwvenpvp/eCNEnBTT1qPs++vTAjnPm6PXpNo3aHHWv80j6veUNRNeEI8snG47T2O7jAAC3GJ+IjGcDo8wdAZFozRmu0s62fhHpZ+6b6l432BbbIuBDW9PFUys9uUQjPbm4UxcP62O6pdn4rp7aw64e0VfccXQ4QT3xClb5LVWn5Y8NNTqn2yh19CbCcgdVwFnlVoZVFmFaDQDgpgmOTlP4aTIOYbfa4S216QTFZp93WRhaPmqQtekg4ENbksI9BfoF6lhJ9Xai5PmqznL/nKuGfJqqEy895aG51Es9XBnNKjcoHGhxK3dp19Why9gfj+b4BMuuvix/VMEqKxWssnik4zRefiQAAFw3PuFpAnarhWRQdJbk+ZZYN/6vT5yymzDNKkjbqgj40Jakyr3PG/GSKIpSWopRSjYapFfDV1kC/hyPSMnFU25nq46rd/SFJz0iZ8vP0cOJ3456eOIfmIec5PcPZf6oeOS+v4x1euEvY6fMG/Er7nfyxwEA4Lrx02S4BkSZ2jE1B5KdO9tmtU17cnHtyHGTL8qDtK2KgA9tRQrx87wjpdiV66XUFIMl5FPA1+sFyW/pcmmR/+vS4oA3r+Abkqfqbckz8LVjIargeLVatVKtVq+Rq1Kp1g5lX3/9tZg333xdOxz+rCT9Od947dXot0NfD3vr32+EL1sWEi8/ZiCV/3+7EUNCQui1VgcGBlp69AEAA4x/qOE3fuHpRapYLKyF30lV/BdVCbRj4qBZbIuAD23FOR4ayd0nUtKt2iClJHcGfKPBIAmCXlr22ptSYLBaClItvYohknrp65Iq5DVJrVZXqdXqGplVKpXqY7Va/YFKpfoQwr4yODj4P2q1evfSpUvl/+eu267XKFWr1ZaFtwCAAcY3PC2qM9xnWIU8OHylT3N8w9PO3Dft6crRg6RNBwEf2orUbvPUEo2l954q9xTyU1OM0vLoNZKLp8bqeLlzvaNoA6xTczzCp9J5miac9VR+HgegL5H/f7sZ5a8NABgA/CIyH/DXbGwKjDJbBTw43M2QVLE552a/9Hr1yLGP0Axoq0BtayLgQ1uye2KO92s6KTRytRQYmmCp6l99kW2P51o2wIqXXJZo3h/hbh7yk2QAAAD0Hbf5hae9p4rbfIVwB2HXYttQsXr8/U80DIadbRHwoa1JIZ8q+d32Jtx36+YVJc3zjZNcloRbNkwC4GoYDIb7RFFck5ycnCYIwkqj0XiP/JjQ0NDb09LS7hZF8TW9Xv83+eNyUlJS/iSK4vKUlJR0vV4v6vX6y6b6iKL4gCAIG+jriqJome8PALAB/MLTFlLlvmvuOYTW0sjMKNOFaU8uqRw1bkqHPFDbmgj4cKhJAd/VK/LonCUaRn4OB4DQ6/UugiA0iKJYbDAYdoiiuF8UxVpRFJ3pcbPZ/CNRFL0MBsM+o9HYkpaWJgmCcM2df9etW3eHIAjfJicn14ii+B9BEHaLonjWaDQ+S4/r9XqFIAh5er0+WRTFDDp29erVlg3D1q5dyyQnJ1/acRgAMIAEhKXe4ReRcSQ4Nsc61EHYw6Bos/RCYCz14Z+39cW2CPhwKDo/IEGa4xmxSn4eB2DVqlW/EEXxiCAIBQkJCT+m+9avX/9rQRCOiaKYRZ/Ur1y58veiKG5PTk5+UxCEZYIgtAuCYAnqV0MQhGBRFC+IomjZSVeSpB+Iovi5KIr5Xb9/iUI9PWY2m38oiuI3oijODA0Npcc+0Ov1vvLXBAAMAJaFtXGYmgO/38DOXY1P3zt1fsXo8ba92BYBHw5F53pHS27eUa1PLgmfLD+Xg+GN2Wz+hcFgeJ3Cdc/7RVHcRZV3Cty00JXac+j+pKSkByngi6L4XM/j5QiCsF0Uxa/p+d33iaKoEkWxMSMj48+CIMynCv769ev/b/369T8zGAx5RqORF0VxiSAIXyQlJWGOPwADja8m+X4/TUZDYJTJKsxBeCVVsTkXZv9zWe3Iuya3y0O1LYmAD4eq82nBrYfmvcWL1/+f/JwOALF+/XqHjIyM+0VRjBIE4aA89BPUtvN9Ab+rIv+1IAhbe96v1+ufEQThLPXeU4CnIC+K4jZBEN4XRfE9g8GgFEWRWnksrUEAgAHE3d38Q7+wNFMIdqyF12FgtFla8m991dh7/9Fiy4ttEfDhUNWNxmb6xEhunpFPy8/rAJjNZmrL+SY5Ofmi2WymfRdM8mOI3gR8qvYbDIZvRVF8p+f9er3eXRTFNkEQLDsM6/X6CYIgrNDr9cupJ18URerHT6DHqO+/53MBAP2MX0T6zIBI00V/7FgLr0Pa2TYw0nRu6qxXTowaP8UqWNuKCPhwKOvup6MqfvEc/9DfyM/tAKxfv96OqvjJycn/NBgM9Uaj8W35HPrrCfiCIGzpeb8gCPPouVSp73k/YTAY5lJF32g0zqMe/JSUlDxRFCNNJtNP5ccCAPqYxaFbf+Yblvo5dqyFN2JQdFbHc37RdaMnTG1jbHSxLQI+HMq6eUV2h3y1/PwOhifUI5+SkvJzaqvpeb8oiptpmk5qauqvZPf3JuDTQtnPBEH4b883CHq9/l+iKLYmJydfNmLTaDSOFAQhl/rvqe9fFMUYvV7/mCiK+0RRXNTzWABAP+AXkfESzTUPwFhMeAMGRlrWbDTcO3lezejxU63CtS2IgA+HuvR/28VDU+a6SDtKfo4Hww8aTSmKYiFNvel5vyiK2YIglOj1+l/K7v/egE90tdscpTcP3fcJghAtimL12rVrR8qOXSMIQsq6devupq8pCALXdb/JYDDE9zwWANDH+Cak/sonLK04OAZjMeGNq4rNOT/z+aXlI8dOscnFtgj4cDhIC25dPSIi5ed5MPwwGAw/EUXxY1EUT4miOFUURQr8c0RRpBAfJ2/R0ev10wVBOK/X65/veT9V5QVBCExOTv493aYFugaDQUpOTl5BrT96vX4aTdCh4E9jMnu83mMU6pOSksauWbPmt/SpgSAILyQkJPxKFMUvRVF8o+fXAQD0Mb4RKSpLuNdkWIU2CHtrUJRJWvKmvm7sPY+2KmxwsS0CPhwOdi22Pem2ONxBfq4Hww+DweBAk2wouBsMhjOkKIp6g8FgtVZDEIQZoijSRlcvyO4PT0lJofun9LgvJDk5ucloNNLCWlq4+4HBYLhswzUau2k0Gp/ovm0wGLwFQThsNBrzqV1HfjwAoA/x1aaO8o/IOBock20V2CC8Hv01G6WAyMzzk2e9UjZqnO0ttkXAh8NFquLP8YhYLz/fg+HJzp07bxdF8a/p6ekPi6J4t/zxbqhlh46Tz6lfv379HwwGw33yRbE0KafrNR+QP3Y1jEbjPWlpadPS09N/K38MANCH+EWkharjNluFNQhvxODY7IvP+kRWj54wrVUesG+1CPhwuEibX7l6as+6eGomyc/5AAAAhjhBKzaO9glLqw2MMlsFNQhvxM7Fthn1Ex92qx9lY4ttEfDhcHJ+QILk4qlJHzFixGV91gAAAIY4vmGpkVS9pznm8qAG4Y0aHJMlPf6cqmLUuCkX5SH7VoqAD4eTtPmVm1fUGVcP7UPycz8AAIAhSoAmfYy/ZmMVjcaUBzQIb8bAKJP0yhsbau66Z0azwoZm4iPgw+Gme2cv/hV3LQUAADAE8Y1I06h16L2Hfa+/diNN1Dkz+YmFVMW3Ctq3SgR8ONyc6xMtuXpFnnVZHPGw/BoAAABgiBEUs3G0b0R6Nar3sL9UxWR3zPeKqB09fuoZedC+VSLgw+Ho09SL76FJQy8+AAAMcXzDU99Sx22xCmUQ9pUBkZm02LbO8e8u9aMnTLMK27dCBHw4HJ3rHUW/nn3KQ3O//FoAAABgiOAbbvqjT1jqkYAoEza2gv1qULRZevx59XFbadNBwIfDVZqL7+IZkSS/HgAAABgi6MwFATEZ39QujX/npH9EepNveJpVMIOwLwyKMksLlq1usOecW2xhsS0CPhyuzvPt3N3WxVPLyq8JAAAABjmxpr2/02XlFm/YcUhK2FTYHJn2Re3rq98r84vIaPEOS72IcZmwLw3QbpQCo81NDz/+sk0stkXAh8NZSy++p0Yrvy4AAAAY5CRmF/xrzdZ9UkJ2oZSYUyglbtotJebsPhe7cVfVG2veqwiMNNX5hKV2BTSEfXjzqmJzpKe9NeV2E6adYW5xFR8BHw5n5/rGSHM8NJXzloSNlF8bAAAADFISdhz8cbwp98u12/ZL8Vn5l0zILpBWbt4jrdy0uy1247d1oev/czwwylTvE556HhV9eLPSYlufsNRG9oHZTbd6sS0CPhzOunlFSu5+cZKrR8RS+fUBAADAICUuM+/JxJzCjsSc3ZcF/J5BP3FTkZSQU3hBl5VX9XbSB2WqmKwa37DUC74U1hD24Y2oyaCZ+Bf+8Yzqli+2RcCHw10K+C4emr1zXgr9jfwaAQAAYJARKkk/0Jnztqzfccgq2FtLFf0isl1nzq1frv+oNDg6q8EnLLXNKrxB2AuDo7OkBUvXnBwzcUbDrVxsi4APYVfI99S8IL9OAAAAGGToNhfcl5BT0LJqc9EVAv2V7azoU49+If3+VLj4SVWIblOVT3hqu294qoT2HdhbabFtULS56cEZ/zw18hZW8RHwIewM+HOWRPxPfp0AAAAwyIjLyo9d9+5BqxDfW6l1Z+Wm3Rfjs/LOalM+L18Wv6XKLyK9yS8CIzZh7wyOyZbcPcJLR4+f2s6w1uF7IETAh7B746vIdjcvzTT5tQIAAMAgIS5n1x06U2756neKrYL79UrTd1ZZFuQWndamfFH52srtJ2jEJk3eQUUfXsuASJPkvSL5NPfg7JN2Dk5W4XsgRMCHsNP5NDJzCTa+AgCAQUucOc937bYSWjxrFdhvVFqoSyZkF5yNTv+q7I1V75b7azae9g1P65AHOwhJegMYFJPd/tj8gPKRYydbhe+BEAEfwk7n+sRILp7a2jn+GkZ+zQAAAGDjxJq+/KnOnPf5zbTnXEvq07dU9DcXNUdv/Kb6zTXvlQdoNzZ5r0jpwNQdKDc4Jkt6OWRlzRhH58ZbsdgWAR/CLr20kru/TnJdogmUXzcAAADYOLqsAuXKnKLzVxuN2VfSpwO0IDchu/B8rGlXdei6/1YGRplO0ix9S7hD2IeWKv5GKTDS3PLgjBfqRo2f0iEP4P0tAj6E39k1MvPb2YtDfya/dgAAALBhErLyxXXbD1gF8v6yx6ZZ7XHm3Ma3k/5XGhyVRbvjnpOHPTg8DY7OluZ5hJ1AwIfw1urmHSXN9Yk+57YkYqb82gEAAMBG0eZ8PYo2rOqLxbXXq2XEJvXpU1U/q6BuhfBRmTo2p8o3Iv1sZ9BDRX+4GhiZKXm+bWh0+NusuoFebIuAD+HlPh2YQL8K8usHAAAAGyXBlO+5hhbXZhdYBfCBdKVlxGbR+fis/MYww8cn1HGbqn3C09p8w2nEJoL+cJMW2wbH5pydMc+/auTYRy7IQ3h/ioAP4eXO9Y6mTa9q5niuGC2/hgAAALAxQnfuvD3BnP/huncHrj3n2lJFv5Bad6hfv16T8ln50oQt1X4RG1sQ9IefNBP/5ZCVVfaOzs2KAaziI+BDeLluXpFdPw+RXvLrCAAAABtDZ957X3xWfju1yFiH7Vtr1+64HfHZha3a1C+qXkvcWuUXkdbsE5aKyTvDRFpsG6DNbPkb/1zNqPEDt7MtAj6E1s73j5dcPSI+XLx4/f/JryUAAABsiHhzvnbttv23vD3nWtLknc4FuUUtUelf1Vpm6WszGmnTLAT9oW9QtFmauySsdNS4KRflQby/RMCH0Nq5PtFUwW+e6x35N/m1BAAAgI2QkHrwV7qsvKKBnJ5zM14asZlTeM4yS3/te6UBkaZ63/C08wj6Q9egKLPk+ZbhtMPfZg7YYlsEfAiv7HxabOulfVN+PQEAAGAjrMwu/Actau3v2fd97aVNszYVnY015Va/teG/JwKjzHU+YSlW4RAOfmmxrSom54yzq2/VyLGTB2SxLQI+hFeWfiZcPCPyfX0Tfiy/pgAAALABdFn5K9fvOGwVoAeLlln6m3aT5+NMu+qWJ31YFhRlbvANT22Xh0Q4uA2OzpL+FbKy3N7R+YzCof93tkXAh/DK0kx8Fw/tRRfPcCf5NQUAAMAtRre54Dc6U96RVVsGfvZ9X9sZ9IukxE1F5+Kz8k4t139UqY7bVEObZlkm76B9Z9Drr91Ilfz2SU7P1IweP9UqkPe1CPgQXlmapuPuHy+5eETEya8rAAAAbjGxplxXS0/7IGvPuabdm2blWPr0GyOMn1Yu1W2u8otIb5YHRjjYzJCCorMuuC58q3zUuP5v00HAh/DquvvpqIpf6L54/a/l1xYAAAC3kDhzrrD+3UPWIXmISItxV27a3ZGQXdAckfxpxbKEd8p9w9PO+IanWnq6rQMktHUti23fNtRNmDTrZH8vtkXAh/DqunlF0cZX5109NM7yawsAAIBbRHRO4Z90ptxDa7buswrGQ83OTbOKqKLfHJn2ZdmrK7eX+2s3NvqGWwdIaPsGxWSdV87xrBs5bnK/jsxEwIfw2s7310luXppo+fUFAADALSI+K3f2qi17OxKyC60C8VC1O+gn5hS1RKZ9WUWz9P0i0s94h6VeRI/+4DEoOkt6SZVYpuCUbQq2/xbbIuBDeG07p+lo98wLjP2p/BoDAADgFqDLyls9WGbf97WWTbMsQb/wbOzGb6veWPteVWCU6aRl0yxLiETYt2UDtJmSvya99a9Oz5b352JbBHwIr+1cb9r0Stvm4hmJaToAAHCrCTXv/IXOnHdg9TtDvz3nWnaP2KRNs2Iyv60P3fDf8sBIU70PjdhERd+mDY7JvjDn5TfqRt71yHl5MO8rEfAh/H7nByRIrh6aMPl1BgAAwAATl/ntjPis/HNUxZaH3uFo94hN2vBLZ86zzNIPjsmu8glLuWDp00fYtzmDomlnW7Fmwl+faLCb0D+LbRHwIfx+5/vHS66emk9fein0J/JrDQAAgAEk3pQbtuG9wbu5VX/aOUt/9wWdOa8+TNx5XBWbXecbnnYWbTu2Z2C0+fy0pzzLRo2b0iEP530hAj6E3y9teuXqqT0zzzeck19rAAAADBChhp0/iTfnfzJc++97I1X0acRmYk4hjdg8FW74pCJEt7nKJzz1PPXpY8SmbUhV/H8G6apHO0ztlzYdBHwIe6FXZOdi2yURPvLrDQAAgAEiwfQ1F5+d34L2nN7ZHfTjzXktmpTPy5fGb6n112SctuyOe4XQCQfOgMhMyS8irfk+p/mVo/phsS0CPoS9kza9cvXUbpFfbwAAAAwQCea8xTT7nqrU8jALr+53IzYLm7WpX9S9unIrjdhs8QlPvYiK/q0yQ1LF5px/8qU3KkeOm3xWHtBvVgR8CHvnPN84Wmh7YtaSsJHyaw4AAIABQGfKzVq7fb8Un4WAfyNeGrGZXdgWk/51xeurt1cEaDeeot1xrQMo7G8ti21Dxeqx9z7WajdhmlVIvxkR8CHsnbSrrZtP1AW3xZon5dccAAAA/UxMeu4fdOa8w2u3llgFV3h9WibvbN4jrdy8+0xMxjc1/177n+MB2szTtGkWKvoDJ/1dB0RlXpg6+5Xy0eOmWIX0mxEBH8Le+3RgojTHKzJCft0BAADQz8Rl58+gyjP1lcsDK7wxaSdgqugnZBeejzXlVb617oOKoGjzSZ/wtIu+FEIR9vvdoOisjhcC4qpGO0zr0zYdBHwIe6+7Xxz9+qm7e+iP5NceAAAA/Ui8Kf81jMfsHzsr+pZZ+m1xpl31y/X/Kw2OMjd4r0htw4jN/jUw0kT9+I33TJ5X25c72yLgQ9h7aVdbFw/NGRffFXfJrz0AAAD6CbNZ+qEuK2/7WozH7FctIzZzukds5p9aIXxcrY7dVOkbntpOk3fQvtM/qmJzLsx6YVnVyLFTzjGs0iqs34gI+BD2XjevSGmuVxSNzXxefv0BAADQT8Tl7LpDl5VXS33j8lAK+8euqTuWEZsRxk9PqOM2VfuGp7fIwym8eQOjzJJHqFA99t5/NNk59M3Otgj4EF6PkZK7fzxV8dfJrz8AAAD6CV3Wt09QvziNe5QHUdi/WkZsbqawv7tBm/pZ+auJ20p9w9PO+GLTrD6T/h4DI03nps1eXDqqjxbbIuBDeH3O94+X3Dw1X81eHPoz+TUIAABAP6DLzlveOf8eAf9Wadk0a9PujoTswtaotC/LXk3cWuUXkdGCTbP6xqCY7IvP+kXXjp4w7QzDWgf26xUBH8Lrc65PtOTqoT3p6hE+UX4NAgAA0OdIt8Wb83as33HIKnTCgdcyeadzQW5TVNpXtW+s3lFOQd87LAUjNm9C2tnWX5Nx6t7J8+r6YrEtAj6E16+7v05yXaKdJ78KAQAA6GNiTQUj48x5h9dg/r1NSa07tCA3IbvgfEzmruo3171fFRiZedInLPVCZ2hF2L9eg2OypZkvLC0fNW7yBXlgv14R8CG8fqlNx8VDEym/DgEAAOhjEkz5Tgmbis5RmJSHTHjrpck7q2jTrE272+Myd516a8N/TgRFZp7yCUs9j5B/fQZGmaTFb26ovevuGS2Km5ymg4AP4fU7z9cyD3+nJI24TX4tAgAA0IckZBV4r8f8e5vXMmKT+vRzCmjyTs3ypP+VqmKyanwj0trlQRZeWX/tRiko0nRm8qxXbnqxLQI+hNfvXJ8YycVTU+PuFfUX+bUIAABAHxJvzhfWbttvFSih7drVo38u3pTbECZ+fEIVm13nHZZyXh5oobXBsdkdz3hH1tpNmHpTVXwEfAivX9rwytVDe97FM+ox+bUIAABAH7F4fe7/xZvyC1a/U2wVIqFte2nTrE3Up194KsL4aWWIbnONX0R6q2XyDhbkXlFabOsXkX5q4sOuDTez2BYBH8Lrlza8mucXJ81Zog2RX48AAAD0EXHZ347RmfMbV23ZaxUg4eCxa8TmxfisglZt6pcVyxK3VvtFpDf7hqci6F/BoCizNPOFZcdGjZ/SIQ/uvRUBH8Ib8+nARPo1RX49AgAA0EckZOXPiTfnXaSAKA+NcPBJIzZpQW7i5t3N0WlfVr2xcnupvzaj0ScMQb+nFPAXvra2cczdM07faJsOAj6EN6a7n45+/dLdK/QX8msSAACAPkBnynud+u+p3UMeFuHg1bI7LlX1swvbotO/rnhj9btl/tqNp33C0y4i6Hctto02NT/8+IKqkTe42BYBH8Ibs2uhbe2TXhFj5dckAAAAfUB8Vl5a0vtHrAIiHBp2j9hM3FTUGrPxm+o31/6nLDDKVG+p6F8h+A4ng2Nosa223G7CtNYbqeIj4EN4Y1r68H1jJTfPSF5+TQIAAHCTRKdU/TzenPfFuu2YoDPUteyOaxmxuftcbOa3dW+t/6AiMMpc7xueOmxHbAZoMyXf8LQmx7+7NI6eMM0qwH+fCPgQ3rjzfKlNR+Mrvy4BAAC4SRI27bpLl5VXhQW2w0eq6HeO2NzdrjPn1b+t/19lcHRWnU9Y6jlL8B1m7TtB0eaLTzynPnEjM/ER8CG8cWmSjpunZp38ugQAAOAmicveNXnl5qIOqu7KgyAc2naP2KSqfkJ2QX2Y+EmZOjaHJu+0ykPwUDYoOqtj0Wtra8dMnNFwvW06CPgQ3rjufnGSq4fmM/l1CQAAwE2iM+UtWLutBAtsh7krN1kq+jRi83S44dOyEN3mSp/wtLbhMEvfstg2KqvloX+8fHLUuMnXNTITAR/CG3eeb5zk4qE5Pm9h7O/k1yYAAAA3QUJWftSarSVSfBYCPqTJO50V/cTswtPalC9KX014p8pfk9HsG24djIeSqtgcab5XRNno8VPPXU8VHwEfwhu3c5KOtvGpxZF/k1+bAAAA3ATxWflb12yjgG8d9uDw1bI7rsXCZm3qF9Wvr9pe4R+R3uodljokR2zSzrY+K1IaHf8+p+56Ftsi4EN447p5RUmuXtoOVy/tPPm1CQAAwA1iNks/1Jnz91KLjjzgQUgmWGbpF9EOuWei07+pfn31jqoAbeapoTZi01+TQYttzz/+dHDFyLGTrYL81UTAh/BmjJTmByTQ71Xy6xMAAIAbZFVaniI+K79i9TvFVsEOwp52jtgsoqr++eiN39T9e91/SgMjTfW+NHlniFT0g2OypQUhq07aT3Q+bdfLNh0EfAhvzqcDE6lNZ5X8+gQAAOAGSczKnaoz57XSJkjyQAfhlbSM2LRU9IvOxZnzqt9a/9+yoBhzjfeKlI7OPv3BG/b9NbTY1tT84IwXa0aNm9KrxbYI+BDenPP9dZKLh3aru7v5h/JrFAAAgBsg1pT/XKJl4yOMyITXZ3fQX5mz+3ycadep5fqPTgRHZ53ysWyaNXhDfnBMluTuFV46evyUi71ZbIuAD+HNST87Lh7awlmemt/Kr1EAAABugHhzQciG945YhTcIe6tllj69Sdy0+0J8Vv7JFcJHVeq4TdU+4annfcLSLL3t8hBtywZGmSTPt43N7N9mn7RzcLIK9HIR8CG8Oed6R9OozFNzPGNGy69RAAAAboD4rPzEpPePWoU2CG9Ey3hNyyz9/GZNymflIbottX4R6U3yEG3L0huS4Njss489HVQ+cuwjF+WBXi4CPoQ3p2WSDgV9X8398msUAACA6yQ0VPqBzpyfve7dg1ZBDcIbl3bH7VyQm5Czu0WT8nnVq4lby2h3XJ+w1I7BUNG3LLZdtrrKfuL0JjuHa7fpIOBDeHO6eUVKbt5R0hzPSBf5dQoAAMB1Eqn//JdxWflfdm5yJQ9pEN68nSM2d1Mbz9no9K/KXlu1vSJAm1lv2R33CsHaVqTFtgGRmWcm8c+fGjV+ilWoR8CHsO+kgD/XJ1py9dT4yq9TAAAArpO41F136LLyj67astcqmEHYl1pGbG7eQ1X9lui0r6vfWP3eCf+IjS00ecdWK/pB0eaOeR5hJ0aNn3LNNh0EfAhv1siuhbaaSPl1CgAAwHWSsHHXXfHmvLPUSiEPZBD2h92bZiXkFLTHZn5b+eaa96qDIi2bZnX4UrC2obBPi2293jY0sg88WWM34eqLbRHwIbx53f3iJDdPbZr8OgUAAOA60WUV/j0xByMy4cBrGbG52TJisy1m47cNbyd9WBoUZWrwCU9ts5mQr8mQVLE5Z53dfOtG3nX1xbYI+BDevPP94yVXD81H8usUAACA6yQxu8DFUk3NRsCHt0bLiM2c3dSnfzE+q+DkCuF/FeqY7CqfsNTz1Kd/q9t3gmKypJeXrS6zd3RuvdrITAR8CG9edz8dterkurubfyS/VgEAALgO4rPyPGgHWwR8aAt27Y57QWfOOx1u+OS4Oi67xjc87Yw8dA+klsW2moy2vzk/Vzl6/FSrcI+AD2HfOM83jnrwD7q+EneH/FoFAADgOog354aufqfYUkWVhy0Ib4mWin5nn35iTuGpiORPy5fFv1PhF57WZpm8cwsq+kExWRddF71dNXLc5Cu26SDgQ3jzzvWJoYBf9ZRvOCe/VgEAALgO4s35q2hEJgI+tEVpd1xL6052fktk2hdly+K31PlFpDcP9IjNoCgzLbatY/82u3b0hGkI+BD2gzQm08VD0zzHU/uI/FoFAADgOtCZ801rtx+wClYQ2pKdIzYtC3KbtClf1L2+6t1yv4iMFu+w1IsD06NPO9vmtPOuPtUjx04+j4APYd/btZtth9uSyJnyaxUAAIDrQGfK/xC72MLBIrXukAnZBRdiNn5b9eaaHRWBkZknfcLTLnYHcetw3jcGRWdJ/1KvLFewynYFe/nOtgj4EPaBXjQLP05y9dA+I79WAQAA6C2SdFu8Of/rdajgw0EmtZTR4vCVm4rOxm78pi503X+OB0aa6qmi3189+gHajTTRp3WS8rny0eMvb9NBwIewb3w6MFFy8dQsll+uAAAA9JJV5p2/0Jnzd6/dVmIVoCAcDFLrDvXpJ2QXXNRl5VW9vf6DsuCorDrf8LTzncG8b8O+Kjb7vOuit6pHjp3SjoAPYd9rCfgekWr59QoAAEAvWWX+5i86c95BWmQrD04QDi5p0yyq6O9u12XlnVoh/K8sODqr3ics5Zxld9w+MijaLHm+ZaidMGlmg12PxbYI+BD2jfMDEiQXT224/HoFAACgl8RlF43RZeWfoDGZ1oEJwsFn96ZZnX36+afCxI+r1HE51b7haWf7atOsoGjzeaWLZ8WocZM7EPAh7FtpN1sXD22i/HoFAACgl8RnFk6MN+fVrN6CgA+Hnp1z9C0jNs9okj8rX6rbUuUbnt7SOWLzxoM+VfH/pU6sUnBObd2LbRHwIewbKeC7emgN8usVAACAXrI6Z88D8Vn5jbRYUR6OIBwqUp9+54Lc3ae1KV9WvJq4tcwvIqPpRjfNCojMpOe1/tXp6Us72yLgQ9g3uvvpaBZ+1ogRI26TX7MAAAD0Al1m3rT4rPwzVOmUhyIIh5rUurNyk6V950xU2lflNEvfX5PR7BOW2nG9FX1VbM65p15+o2rk+MltCPgQ9p3ufnH067tOoaG3y69ZAAAAekG8adejOlPehUQEfDiM7Nw0yzJisyU6/ZtqmqUfELmx0ScspdetO4GdO9vWjP/rE012DtMQ8CHsI2kOvoundufjvr4/ll+zAAAA9IL4rMLZ3YsS5SEIwqFuAm2aRSM2cwrPxW78pvbf6/5TGRhlqvcJSzv3fUGfFusGRmZ2TJvjQYttEfAh7CPpZ8jFU/PVvMDYn8qvWQAAAHqBLqvQjSqZFHTk4QfC4SK9yV25uUhatbmoLc60q+HtJJqlb67zCUu95iz9oChzxwuBuio7h2lnRyHgQ9gnWn6GPDQFjwZH/1x+zQIAANALdKa8p2lEJrUsyEMPhMPNniM2deb8k2HCzhOq2Owa3/D0s1cK+bTY1l+b0Xj/tKer7xjzEAI+hH1g189Q8VPqyF/Kr1kAAAB6QZw59/m12/Zbgo087EA4nKWF5ys3FV2Iz8pvCBM/LgvRbaryDUs7J5+8o4rN7njypddq/sL8vR0BH8Kbd55PDLXoHHzeN+FX8msWAACAXqAz57+47t2DCPgQXsXOiv5uKT67oFGT/FnZ0vgttX4RGS2+4d8ttvV8S6y2nzi92WmuPwI+hDfpXJ8Y+vXYHH/db+TXLAAAAL0g3pz38oYdh61CDYTwcruCfkdCTmGzNuXz6ldXbqv0i0hr9YlIv+gfmXlxysyFJ6a6+CLgQ3iTWgK+h7Z0lqfmt/JrFgAAgF6gy8pbsOE9BHwIeystSKcFuYmbilqj0r+ueW3V9gpV7KZ6d4+w+mlu/me7qo8QwhuUfoZcPLXl8xaG/k5+zQIAANAL4k35Cze8d8QqxEAIr60l6G8qogW57bEZ39a+vurdg88GxFXPWhTWPmtRGAUUq+ACIfx+O98kayrmLYxFwAcAgBsBAR/Cm7NzxOZeae22PXWf7akqMWz5stpvhaF2zpKI1pkLV0hPLY6wCjAQwquLgA8AADeJzoQWHQhvzgIpJjPvQs6nRyoOVrWeP1J3TtpfeebUji8OVGs2bDv+QlB886yFK9pmvRIuuXhYhxkI4eWiRQcAAG6SxOyCf23YccgSUqyDC4Tw+y2UErPzm3YdPFmzv6JV2nPitFRS0SodrDojHaw+ez7v0KkawztfVQRoUsvnLIlom7lweceTqOpDeFWxyBYAAG6ShOy8f6579wDGZEJ4g8aY8jqyPj5UUVLe3L63tMkS8Lul2weqzkqHqs92lFSeafzPN4frNEnbSv+pSmicuWB5+2xLVV9jFXAgHM5iTCYAANwk8ab859ZsLUHAh/BGzC6UdFl5zV+V1NUeqDxzWbiX21nVPysdqGy9kH/kVFXKtm9qg7WppS6emvYnFi6/gKo+hJ1aNrry0BxyX6z9tfyaBQAAoBckZOXOX/1OsZSQXWgdXiCE1zQ2M1dK/9/+mn3lTWfl1fur2VnVb5MO17RdLD7R1Pph7rGKSGFH1YKlq2ufWLD8wuxF4dKcJajqw+Fr114SxY/7hmInWwAAuBHiTbmuXaP+rMILhPDaxpny2j8vrq4qKW+xCvLfb5O0r7zFUtU/WHXmYsHR+pr093Kr1FHp5fN8oloff3n5xacWI+jD4acl4HtoCh4Njv65/JoFAACgF8SZds2ioEK7dMrDC4Tw6uqyCqSU/5RUF5eebikua75CgO+9l3r1a85e2FfW1P7J7rITUeK7tS8vW1M9c+GKCzRXH1V9OFykgO/iofl6XmDsT+XXLAAAAL0gLvPbGbqs/HNUxZcHGAjhVcwukOLMeWc/Kaoq31/R0iEP7DcqBX16s3Cwuk06UtPWnnf4ZL35g8JSVWRazTyfmKbHX367g6r62EQLDmXn+cbRrzsf9034sfyaBQAAoBfEb8qdEp+V37JyMwI+hL01zpwvGd7bV72n9HQTtdnIg3pf2F3VP1h99uK+8ua2T3eXl8enfVC54NXVNbMWhV2YtXAFqvpwSOruRwFfs8MpdOft8msWAACAXpCwuWhSfFZ+/aote6xCDITwShZIsaa8cx8VVpaWlDd37Onl4tqbkar6h2rapSO1bW25h+qacz7ac2JZbGa1u29Mw+Mvv23ZLRebaMGhorufTnLz1GSNGDHiNvk1CwAAQC9IMOVz8Vl5VTRJxzrIQAjlUu+9sL24eu+J0w0l5Z0bWw2Ue0ubaZdcmqsvHag+0/pJYVn1yvT/VS96fV3NU4vD255YsFyag7n6cJA73z+eKvhG+fUKAABAL9FtLGB05tzjCPgQ9sYCGo3Z/p/c8rIDla0X5QF8IO2u6h+ta28rOFrf9M4nxcde02Weeto/9iQF/Sctm2hZhycIbV1LwPfQrJRfrwAAAPSSBFP+H+PN+SW02ZV1mIEQ9pSq9+veKarbfbyxsb96769X6tWnTbQO17ZLh2raWj/dXVq31vTJiVdeX9cwZ0lE6xMLVqCqDweV8wMSJDdPbbj8egUAAKCXGHYe+0l8Vl7B2m37rcIMhLCH2VS9zzv//rellSXlzRcHovf+eu2ewHO4pu3cnhOnW975dF/pv1fmVD3tF9Mwc+GKjtmvhKGqD23epwMTJbcl2hD59QoAAMB1EG/O+2LduwetAw2E8JJUvV+7ZXd9wdGGeuqDl4drW5Kq+vQJw+HaczRus+mzPeWn9Zu+OLrkzQ31Ty2OaH4CE3igDWsJ+J6Ri+XXKgAAANeBLiv/vfUI+BBe05iNuzre+fJo5f6KlgvyQG3LUtDvHrdZXNZUv+XTfdXL12yueMY/tnHWwrDztIkW5upD2zFSmkdjMj20z8ivVQAAAK4DXXZ+6trtaNGB8GpS9X5lTkFz3qFTJ0tspPf+RqRe/SN156RDtW0tXxZXnRQ2f3nc523hJFX1Zy4Mk55aEnGFwAXhwOnmFUUTdDrcvCJmyq9VAAAAroP4rDzdmq37pITsAqtgAyHMl2Iy8zpyPj1SUVLe3EZ97vLgPNgsLmvpHLdZ0ybtr2g9tfWzfTURG7Ydfy5Q1zRrYVg7qvrwVjnXJ5qq981uS8Iny69VAAAArgOdOf9VGpOJgA+htVS9T8zOb9p18FTV/sqBnXs/EFJVn4L+wZq2s98eqK0TNn9R5rfCUDtnSUTLzIUrLJtoyUMYhP3lXJ8YGpFZ9aSX1lF+rQIAAHAd6Ex5C1Zu3iMlZBdahRsIh7uxpjzJ/PHhsn1lTe200ZQ8IA8V6ZMJquofrmmTDlSeOfXeV4dqNUnvUlW/ddaisLOzF2GuPux/5/nGSS6emoOuAXF3yK9VAAAAroP4zPyZKzftlhJyEPAhvEz6VCs7v/mrkrqqkorB23t/vVJV/yDtllvZej7v0Mka49avK4O0qeVPLQk/N3PhiotPoqoP+0l3Px29kcx73Dfhx/JrFQAAgOsgIavwfmrPSUTAh/Ay48z5Fzf+72DFvrLmVlvZ2GogpXGbNIGHqvolFa2N7399uC5KeO/EiyErG554efm52ZbdcjFuE/adXbvYfiS/TgEAALhOdJsLGF1W/umVm4usAg6Ew1dak5LX8kVxdQWFXHn4HW5SVf9A1Rmq6l8sOFJflbz9mzpVVFqpq5f27BMLl19AVR/2hVTBd/XUpMuvUwAAAK6T6JTCP8Vn5e+nhbbWIQfC4WmcOV9K+W9JZXFZ09mhMDmnr+xR1b+4r7y55aO84+WR+ndrXl62um7mghXnqFcfm2jBGzPS0oPv6qmNkl+nAAAAXCfrt+b+TGfO/XjtthKrkAPhsDS7QIoz5Z35eE9VbUlFc4c85MLT0p6u3XIP0iZaVWcvFhxtqNn4fn6FKiqtYq5X1NknFqCqD69PN6/Irik6Wj/5dQoAAMANEJ+dl7H+3UPWQQfCYShV7w3vFdcVnzjdPBx776/X7qr+oZqzF/aVN7d/uru8PNb4n8oFr62tnrlw+YXZi8JQ1YffqyXge0dJrks0rvJrFAAAgBtAZ86LTnr/qFXQgXD4WSDFmnLP/6+wsuLAEJx7359S0Kd2poPVbdKRmrb2giP19dn/2125NGZjhbtPTNPj/3r74lOLNdhEC17Rzl1stZKrd+Rf5dcoAAAAN0Bcdq7/uncPdi0slAceCIePtLFV0vY9J4uONzbtQ+/9DftdVb/tYklFy9nP9lSWJab/r2bRa2urZi0KuzBz4XJU9eFlunlH04jM+jmeMaPl1ygAAAA3QGx23tz4rPyOxJzdVoEHwuFiQlaBFGPKO/ff3IryA5Ut5ymkyoMrvH6pqn+otl06UneuPf/wqdObdxafeC02s3a+X2z9Ey+/LVGvPsZtwnm+sRTwC5/z1PxWfo0CAABwAyRuKnhQZ847vWrLHqvQA+Fwkar367buPlV0vLFuP9pz+lx6w0S75R6iTbSqzrR9uru8atXGjypfeWN9zZzFEW0zFyyX5iDoD1vn++sk1yXabe7u5h/Kr1EAAABugKR3iv4cn5VfuvqdfVahB8LhYkxm7sUd3544sa+8CZNz+llLVb+mXTpS2962+2hDy9bP9h17Pd5c97R/3EkK+k9iE61h59OBiZKbp3aV/PoEAADgBpEk6bZ4c34eRmXCYWt2obRmS1FdwZH6UyUVmJwzUFJVn/6+Kewfrm1r/rSo4uS6rE9OvPL6uvo5HprWJ1DVHyZGSvMDEiQ3D41afn0CAABwE+jM+aY1CPhwOJpdIMVm5p3f+uXxsgOVre3ovb81Wqr61W20ida5omONTds+Kyl9a+Wmqqf9YhpmLlzRMfuVMOrRvkI4hINdmqDj5hXZ4eqpcZdfmwAAANwE8VkFb6/ZWmIJO1YBCMIhLPXer960uyHvSH3tgaozVsETDqz0Bov2HzhSe046UtPe9Nme8gb9pi+OeYbqT85Zoml+YsEKTOAZYtIGVy6e2sa53pF/k1+bAAAA3AQ6U/6z1KKTgIAPh5mxmbnS5s+Plu0rb7qI6r1tWVze0jlus/rsxeKy5oatn+6rXr7mncpnA3T1sxaFnZ+1CFX9oeA83zhac3F8XmDs7+TXJgAAADdBbPquBxNyCi8k5hRaBSAIh6zZhdLKnMKGbw+erEfvvW27r6KVFuVKh2vbW74qqT4pbP7yuPdbQqOLR0TTzIUrpKeWRGATrUGqu1+c5Oqp+Ux+XQIAAHCTxJtz7XSm/OOrthRbhyAIh6ixmbkXzZ8cri6paD5LPeDyUAltT/p3sozbrGmTSipaG9794kC1ZsO7x58L1DXPXhTWhqr+4HMeBXyPiPXy6xIAAICbJGHHwR/Hm/M+WvfuAasQBOFQlHrvdea8tq9LaqsPVKL3fjBaUtFqCfqHatrOfnugtt6w7esT/mHG2jkeES2Wqv7iCKswCW1PatFx9dD6ya9LAAAA+gBdVp4+6b0jVkEIwqFonLlASv/wQFVxWVMbeu8Ht51V/c6wv7/yzKn3vz5UHyW8e+yF4ISmWYtWnEVV34b1irTsYuvqoXGWX5MAAAD0AQnZeUG02RUW2sIhbzZV7/NbPy+urSqpaMHGVkNIS1W/uk06UNl6Pu/wqWrj1q9rgjWpFXOWaM7MXLC840lU9W3Kzgk6mjqXRRHj5dckAAAAfUBCVsFjuqz8cys3FVkHIgiHkLGmvI7UD/ZX7StvPk0jGeUhEQ5+6VMZ6tWnhbklFa2NH+w6UhUlvlv2YsjKhlkLV7TNfiUcm2jZgO5+Ogr4Xz21IPKX8msSAACAPmBlxud3xmfln1q5Za9VIIJw6FggxZnz2j7dW116oLLVKhjCoSdV9WmPgwNVZzoKjzZWpWz/tlodlV7q5qU988TC5RdQ1b91Ph2YSP33qfLrEQAAgD4iNFT6QXxW/lert+67QiiCcGhIi2uN7+2r2HPidAsm5wwv955oujRXv6SiteXjwtKKaMN7FS8vW1M3c+GK9tmLwrGJ1gDq5hVpGZHp5qkNkV+PAAAA9CG6rLzV67Zjkg4cmiZkF0pxmXlnPiqsrNhf0YKNrYap3bvlUtg/WH3mwu5jjTWZ/82vColKL5/rHXV25oLl51HV73/nekdT9f78HG/tP+TXIgAAAH2ILitvwfodB62CEYRDwThzviS+W1y758Tp09S2IQ9+cPhJYf+73XKb2j4tKi/XpXxQueC1NdW0KJcm8KCq3z9aFth6aGvdvaL+Ir8WAQAA6EMSMnMfSsgpPIOFtnAoGrMx98IHeRXl+xHuoUwK+tSydbC6TTpc03Y+//Cp+qwPCqtejc2smO8b0/T4v97qoLn6GLfZd9L8excP7SeSNOI2+bUIAABAH5Jgyv9jvDl335ptJVbhCMLBbaG0ftue2t3HGpsxOQdey++q+m0XSypa2j7fU1EWn/JB3StvrKuc/UrYBdpEC1X9m3e+f7zk4qGJll+HAAAA9AM6c96W9TsOXSEgQThYLZCiM/PO7fi2rGp/Rct59N7D3kpV/UM17TRus73gaP3pLR/vPb40ZuPJp/1j6594+W2JevVdMG7zhnSngO+lnS+/BgEAAOgH4rJyX1v9TrFlQaJ1UIJw8KnLypdWby5sKjzWUIfee3gjds/VP1h9Vtpf1dr2+Z7KytWZH5e/8sb62icXR7TPXLAcVf3rcK5PtOTiEVHv6hc9UX4NAgAA0A/oNhcoaafPxJzdVkEJwsForClX2vrV8bJ9Zacv7jmB6j28OYtLL1X12wqO1J/Z+lnJ8TcTs6qf9os79cSC5dKTr4Sjqv89UnvOHA/NN7MXh/5Mfg0CAADQD8Rszf2DzpxXtmrLHqugBOGgM7tQWrWpsCH/yKm6kgr03sO+k6r69H+Kwv6h6rbmz/ZUnEra9HmZx7831M7x0LRS2MduuVcy0tKeM8cjYr38+gMAGDFihGKCE8NwvC/j6Byi4PhlDMur75o4/WH5cQPEbfac0zx71nnqCI77kYLjX7afOP1V+r4UnDKYYZV+DKdcSrftuemvjuFmTJG/ALANQiXpB7qs/GzMw4eD3ux8KTYz78Kmz46W769sPYvee9hfdvbqt0mHa9vP0RjWbZ8fKH1r9ebaZwLiTs5cuKJj9qIwTODpkja4musdRb/+U379AQCMGDHCfoJy7pi7H5UYTnlUwSoLFSx/yH6i8wmG45PuuefRn8uPvxkUrPMT9hy/ZfSER+6UP9bFDxhWWcywSsMdk2b/zJ7jMxmO38ewfIGCVTbS96nglAcVrHI3w/LFCpb3lL8AsB3izfnBG947Yh2YIBxEUu99YnZB065Dpyqpf1oeyiDsa7s30TpSd45aeFo+31N5Stjy5TGvt4VTLh6apicWYAIPbXDl4qE5M88rYqz82gMAoNDtMM1VwfI1fxk3je2+z46dPoNx5KsUnDJpxAj3H17+jBEjnJycbqdqu+zuH/T4/W0j3C9/3tixj//YjnP2Zlhlo/3EKfd0vYYcCvhfKFh+nfwBhnVSMZzy5Mi7Hx8lfwzYJrHp3zrFZ+WfXbkZbTpw8BprypeyPzl8Yl9p0zlU7+FAS1X97zbRam7a/sX+irB1WyueDYxrmLUo7DxtojUcq/rufnH06+fu7uYfya89AIAeAX80yzv2vN+e459jWL5Z4fBdu85dnNNYxpHPYji+gmH5I3as0o/j3C0/XPaOTosUrPIdxlEZYqnCc8619CmA4l6n31DgZ1h+NePofELB8ufsHacX27PKhT2/XhfXCPjKEAr4zP0zFfLHgG2y3nzk1/FZ+fvWbttvFZogHAzSFKiE7ILGr/fX1uyvaOmQhy8IB1Kq6h+utSzMbfl6X1Wj8Z2vj/ksF+tdPDSnaa7+U0siJJcrhOGh6NOBiZKrp0Yjv+4AALroDvijJky7u+f9Y8c+/keGVVKQV1mOm+DEKDi+yBLwHfgXFRz/KrXN2HG8Lz1uzymD7B2nSwqO32Lv4LxIMUEZrOD4RgXHZ1K13n7C9LsVnDKaYflaxpF/cQw32a7n1+vi6gHfQbmUAr7dPY/ayx8DtovOnJtqCfjZBVbhCUJbN9aUdzHjfweq9pU3naVKqjxwQXgrtFT1K8/QolzpQNWZU+9+sb9Wk/Tu8WcDdc2zF4W1War6VwjFQ0Xqv3fzjr7o4qWZI7/mAAC6uFrAHzXqoZ9SrzuFcrrNsHyMguO/7nkMwyojGE6ZN8LJ6fYxjk4BDMeXjhvnPPLS4xy/mGGVLaMcpz1AtxUc/yzD8qUTrt2Dj4A/hIjPyn9p9Tv7qApqFZ4gtG0LJJ057+wX+2qr0XsPbVXak+FwTTvN1j/77YHak8atX5UFhBtr5izRtFqq+rSJ1hVC8mB2nm8szb8vc12kRcsuAFfjagGfFtgyLC1wVVo+AmM45buMo3OtguM/Zlj+c9Kecz6mYJXVY8c++KvOCTf8AQeH6b/vfg1LSw/HV1LF3/K1OP5lhuXLxrDTxvX8Wj1AwB9ixGfnj4vPLmhcubnoCgEKQts1LqtASvvgQGVx2ek2VO+hrUv/R+mNKLXwUFV/x5cHT0aL7x97UZXYOGvhis6q/hDp1Xf309GfZav8egMA6MHVAr6Dw9Q7FKyyRuHoHEC3GVb5kaVFh1VqFA58JMlwfDjDKZdQHz615DAcf3DMPY/+qfs1xnAz7KhifxfHv2L5Wgj4ww6zee+P4s15H6x796BVgILQZs0ukOJMeWc+2VNTjd57ONikqj7tlnuw6sz5gqP11YatX9cER6VVuHpqqarf8eTicKvQPHiMtFTwXT2jLO3BAICr0B3w7cZO4XreT8Gd4fimuxyc/9p1e4eC5bf3PKYnCgenZfaccv/YBx//Vfd9DKv8O8Pyp+wdnZ+0HMPyCyjwUz//ZU/+DgT8IUi8Kf/N9TsOWVoerIIUhDYoTc4x7Nh3qris+TQtbJQHKAgHgzT1qbOqb+nVb/xg17HqaPG9spdCVp6etSjs7KxXwgfdJlpu3lH0a9tcL+1lg0EAADK6An7tneOc7qPRljTO0p5TPs84Op+mvvvu4+y56c8zHC/ZOTj7UM/9pEmT/o8Cu4LjA+nxrhadFuqzp4o+te0oHJ3foar++PFOf6Bj7FjlQoblGxTstPuvNH4TAX9okpi1e6rOlNeONh04WIzNzL3wUWFlGXathUNFquofqDpDVf2Lu4811KTtyK0Kic4odfPUtj2xcPmFJxdHWIVpW9TdX0dvSj6bNy/wp/JrDQCgBxTwx0ycQRtI1TAsf5Sq+Yyj8xE7jg8bMeKyWfW3KVint+wdnWsYji9XsBYPUdsNPWjZDZfGajoqP2M4voQq9wzHV9s7Tp/d/QJ23BROwSpL7R2d2xUOTpbWHxkU8PcoOD5V/gDjoAxlOOWF0Y6P3yV/DNg2oTt3/kSXlVe8Zus+qyAFoa2pyyqUhHeLq/ecON1Yguo9HGJSVb9rrn7H/orWlp35J2pik/9TtuDVNXUzFyw/N3tRuE1vojU/IIEWDYfLrzMAABl21Gvv6PQMw01/icK6Had83t5h+nj5cd3cdTc/aQz10nPKl+zGT71UTbdU2FllscJxBmvPObsrOOd/0e8vf/aIEfbjne8Zwz36kv3d0y/r+e/itjGscvqYiU5/kz+gcJzGKhycXf/cx7vrgoFBZ86PW7f9gFWYgtCmzC6g6n37f/MqyvZXtl7AxlZwyNq1W25X2L9QdLyxxvTfgrplsZkn5npHnXliwfLztlbVt+xe66ltd/OM5OXXGABAP9HZQsMftLt71m/ljwGgyy78x6rNey8m5BRahyorCyRddqHF+KzeHA9h30iTczZs31NXdPz0KWppsApFEA5Bu6v6h2vaLhaXN7d9WlRepkv9b+0rr6+rmrVoxYVZC8NsoqpvGY/pqSmevTj0Z/JrDACgn7C00LB8Xc8pOgB0E2va+7t4c89dbWnBrUyalU87h5p3SaszPpTWpv9HSjR9hcW5cMCMycy9+P6u0hP7ypo6UL2Hw1Eat3mwuo2q+hcLjzaczPrf7oplsZmV8/1imh5/+e2LVNW/VXP15/vrJFcPTaz8+gIA6Ed+P+rhB+4cO9VjxIgRV1o8C8CIhJyi+PU7jkgJObuvqCXcZ+VKG1LMkkFIkgyCXhIMKdJK0xeo5MN+lz4xWrtld13Bkfr6/ajew+FuV1X/YPXZi/srWs59sbeyLDHtg+pX3lhf9eQr4ednLVwxoFV9N68omqBzYc7i8OnyawsAQIZKpQp44403jqtUqhNqtfqESqUqUalUgkqlSur6tde++urSlf/+92vRN/JcOPQNDgra8NpbEZ8tj0mS3opaJ4VGre3hOilUu1pa+vpbUrgmWjIYBEkURYsGYYO0Lm0rqviwny2g6v35bV8dqzhQ2Xoe1XsIv5N+Hg7VtEtHatraC442NL/zcXHpqzpTzdP+sfVPvPx2h6Wq38/jNjs3t9LsnvOS7jfyLAMAkKFSqV549dVX31epVNsg7E9DVKp3VMHBm19fHlUfqk2U3gyPt/KNMJ0UqVsjGURZwE99BwEf9qu6rAJp9abC0/mH6+sxGhPCK9s9V5820dpf2Xr2iz2VVeuyPqlY/Ob6micXR7Q/sWB5v1T13bwiJXf/eNq9Nk6eYwAAV+a2LgEYAKTbdFm5iRt2HJbis/KsQhaF+ATzt1KSMdMS7KlNRzQYpZWZn3UtuJUfD2HfGJOZJ23+4mjFvrLTmJwDYS+kXn1LVb+2vb3wWEPzts8PHP/3ypzqZwLiTlLQf/KV8D6r6tPmVi6e2gtzl2iU8qsKAAAAGyB+c/H0lZv3nlu5qahrUa3cQinR/I20Nv09aV3admll5ueo3sP+NbtASswuaPr2YN3J/ZXovYfweqQ3xPSp1+GadulQTVvrZ0UVJzfkfFbu9VZSjYuHptVS1b/JoE/Tc1w9I/Jfein0J/JrCgDgGpjN5l+IorggNTV1mSAIwcnJyZfNr1+1atUvDAbDP1NTU9WiKL5KpqWlvarX65/qeZwcURTnpKSkvCoIwrKkpKQHez6WlJT0O0EQvEVRXKrX6yf0fAwMXVaZ9/4izpRbcO2Z+IWWzYYsonIP+9mYzNwO88eHqkvKm9v2ljZbBRgIYe/snsBzuLb9XNGJ083bv9hf+taqnJPPBerqZi1c3jF7URi12VgF+O+zc3Mrzb/l1xMAwDUwGo13GY3Gz41G42mDwXBYEIRGURRP6fX6Wd3HJCUlsYIgnElNTT0rimIlmZ6eXikIwurLX60Ts9n8Q0EQEpOTk88YDIajoihWGY3GRkEQXqDHExISfiyKYpooirmiKL4nCEK+wWBwoMcMBsNPkpKS/ix/TTB0iMvKD1u7rURKoIr9FQIXhAOn5f/gma/311Vhcg6EfSNV9WkTrcO156Qjde0tXxZX1hu2fHXU862kBhcPTdPMBb2fwDPXJ5padJrmekdabYAJALg6t4miuMlgMJwxGo330B0UrgVBKBEEoUiv1/+S7hMEwUkURQrorvIXuBIGg2E6LZDU6/VL6faOHTt+LAjCu6IoHqdPAwRBuFcUxaNJSUlj6XFRFD8TBGFx1+9jBEGIkr8mGDok5uy5Nz4rrz1x0+4rBC4IB844U4G08aOD5cVlTWeo+igPKhDCm5N+rrrHbRaXNTe9++WBivD175Q/G6hrnLUw7Pys76nqz+9cXPvB4sXr/09+LQEAXIWuSnq2KIqhPe8XBOHfoig2bNiwYRTdTkpKchME4WRvW2lEUQwTRbG6ZyVer9e7C4LQnpyc/Lfk5OT7BUE4vHLlyt/TY4IgvC8IwkJRFP8qiiK9ufj7ZS8IhhRms/RDXVbef9e9e9AqcEE4UCZY2r/yWr4srqnYX9naIQ8mEMK+tbOq3y4drm1r+Wpf1enkbd8c8wsz1LksiWiauXCF9NSSyzfRouk583zjaAa+p/w6AgD4Hnbu3Hm7/D6qtguC8KXZbP4R3RZFcZEoiqcFQUgzGAzviKKYsm7dumny53UjiqJBEIR969evv7SdtCAIUwRBOGswGJ4xmUw/FUXxY1EUMwwGwwpRFPcbDAalwWDYKoriG5e/GhiK6Mx5S9Zs3Yc2HXjLjDXnSWkfHqgoLmtqRfUewoGTft5o3Oah6jbpQOWZU+9+fuBUpLDjxAtB8Y2zF4W1zVrYWdWf6x0tuXhG1Lj6ai3FRgDATWAwGJ4XBOG8KIpu3ffp9fqg9PR0mkv+DVXbjUZjWVd/vcvlz+5EFMVUURSLewZ8URQfoD5+vV5Pu92O2LBhg6MgCAaj0WgWBGGGIAh+giDsdHd3x064w4BYU8FInTm/YvU7xVbBC8J+N7tAijXltn22t6Ycc+8hvHXuq2i1VPUP1bSd3XWwri5l+66ywIjkOlcPTZOrd5w0Z0mEIL9+AACuE71e/5jBYGgVBEEru/9OvV7Pd1f0161bd0dycjK10uyiRbE9jyUo4AuCsJcq9T3uuyzg90QUxdGiKNJC2+cNBkNsenr6DoPB8Nb69ei5G8rEZxUkXXuaDoT9Y5y5QEp+v6SquLSpmdoG5KEDQjiwWqr6Fa3Skbpz1LPf8P7Xh0/GGP9z/PngxEsDPwAANwAFcIPBcFIQhPTeBOukpKQV1JdvNBpHyh8TO9mfkpLy8x73TaUWne5JOt2Ehob+QBRFk8FgiBcEIV4UxQ+NRuNiURT3iKKo6nksGFokbMp3StxUdC4xB4tt4QCaXSDFmfLO7txdVXEAvfcQ2pwlFa1SWZMk7a9o+aqiQrrUCQAAuE5o7r0gCGWiKG6WJOmynW2pQk8jLQ0GQ4Ds/lhRFGuvNNKSqu80anPt2rWXwn9SUtJzoii2GwyGyT2PFUXxJUEQvl2/fr1DVxXf8m5dr9dHCoKwpeexYGhh2HnsJ3GmvM+w2BYOpDpzviS+W1y798TpFvTeQ2ibHqvvkPaVnQ6UXzcAAL0kJSXFXhAEqpZ/RJtP0X2hoaG3L168+P+out5VYc8QRbElKSnpHnpMEAROFMU6CuA08z49Pf0P1I8vCMIf6fl6vX6aIAgXRVHU0PHp6em/FUXxE+rL7x692XWcgir1tPCWblPAFwTBslpeEASBvu533ykYisSZ83wtM/FzsKEVHBhjM3PPf5hfXllS3oTqPYQ26IHqNmlvaXNtwbEGRn7NAAD0EkEQUrZv304LaOtpTr0oihW0kZXRaKzT6/Wv0TEbNmywF0VxJ4V8o9FIG12doc2p9Hr9RHpcr9f/y2QySd3tN/QpgCAIbyYnJ7caDIYaURSbDAZDtSiK/+j5tekNg16vV9ObBLptMBheEUXxSEpKCs3M3yeK4qM9jwdDj7jUXXfoTLnlWGwLB0JdVoG0YdueU0XHGxuoDUAeLCCEt94TjZJUdKxxg/x6AQC4Dmh8ZVpa2nOCILxIs+hJg8GwMC0tjebSP9B9HE3E0ev1c+l+o9E4n6ry3Y/RIlyqwqempl42yooq+SkpKQv1ev2C7p1qvw+aqJORkfGKXq/HrnXDhLis/Fi06cCBMCYz78KOb0or9le2XNhzoskqWEAIb60llWekvWXNbbtPNE2VXysAAAAMImKyvr0/PrugddXmIqtABmFfSdX7tVt21xccrT+1D6MxIbRJj5y8KBWeaPxQfp0AAAAwyHA3m38Yb8p/Z/2OQ1ahDMK+MjYz/8L2r4+X7q9oPre3FNV7CG1N+rk8XHdBKiptfF5+nQAAADAI0ZnynqJxmRiZCfvHQmn15sL6/CMNNbSDpjxYQAhvvUdPXpSKjjfuyT1S/2v5NQIAAMAgZMeOgz+OM+d9tXbb/iuEMwhvzpjM3I4tXxw7sa+86QKq9xDanjSy9kjdBWn30Yal8usDAACAQYzOlLdgzTv7pIRsjMyEfWh2gbQqp7Dh24Mn6zA5B0Lb9GB1G03OqSg50Xqn/NoAAABgELNy0ze/jzfn7luDKj7sQ2NNeRdzPj1SXlLR3La3FBtbQWiLHm+QpD2lpzXy6wIAAIAhgC67QL1u234pIavAKqhBeN1mF0jx2fnN3+yvqzlQhd57CG3Rg9XttLHVyT3Hmlj5NQEAAMAQIMr8zV905rwybHwF+8LYzDxp40cHK/eVNZ1H7z2Etumxeknafbxhvfx6AAAAYAihM+ctX/8ujcxEFR/ehNkFks6c3/pFcW1tSTlacyC0RWljqz0nms4UHGu4T34tAAAAMISIzs5T6Ex5tajiw5sx1pQvpf63pLakrLl5Xzk2toLQFi1tlKTdxxpS5dcBAAAAQ5CErPzIziq+dXCD8PstkOIy89o/2VNVcQBz7yG0SfdXnZWKy5vP7i47/ZD8GgAAAGAIEmvKG5uQU1iNKj68EXVZBZLx/ZKqvSdOt+wrQ3sOhLboceq9P9aQKT//AwAAGMLozHnR6MWH12tCdgGNxmzbWVRZvr+85eLeKwQLCOGttaTiDPXftxaXtf5dfu4HAAAwhNFtLGB0ptxTq7bstQpxEF7NOHNBh7hjX/Xe0qYGbGwFoW16olGSCo83pI8YId0mP/cDAAAY4sTn5K9YvwO9+LC3Wqr35z4sKD+xvwILayG0RfdXnqVfz+yraPmr/JwPAABgGBBvzrVLyCk8vmbrviuEOQgvV5dVKCVt21Oz+3jjaUzOgdA2pV1rdx9vWCc/3wMAABhGxJtzl63dVmLprZYHOgi7tfTeZ+a1v7errOJAZQs2toLQBj1Y3WbZtbboWJ2D/FwPAABgGJGQevBXOvOukjXbSqxCHYTd0uScte8UNRQea6jfj957CG1OetNNu9YWnajXys/zAAAAhiG6rLwFq7fukxJzCq2CHYRkzMZdHdu+OlaB3nsIbdNDteekouONpQdKW0fKz/EAAACGIavMO38Rb8r/cu32/VbBDsL47AJp1abdDbmHTjWg9x5C23NvabN05OQFaU/paZX8/A4AAGAYozPlPZW4aXcHqvhQbmxm/oXNnx+t2l/R3IbeewhtzyMnL1L1fu+R+vpfy8/tAAAAhjGhO3feHm/O27zhvcNWAQ8OX6n3PnFTQXPeoVNV+yvPWAULCOGttbisRTpQ3S7tOdH4tPy8DgAAANBc/AcSNxU1YvMr2G2sOU/K+uRw2b7S05icA6ENallYe/z0e7m50v/Jz+kAAACABZ05P27duwetgh4chmYXSonZBae/OXCyGotrIbQ96VO1kvLW1j3HTz8iP5cDAAAAl4g1fTkyPqvg+NptWHA73I015V3M/OhgRUl5c2txWbNVuIAQ3lpPNEpS4bGGVfLzOAAAAGCFzpy3ZPU7xRibOay1bHzW+lVJbfmBKvTeQ2hrHq49J+0rbzlacKyBkZ/DAQAAACskSfqBzpT3v3XbD0jxWXlXCH9wqBtnLpDSP9hfvrf0dFtxGXrvIbQl6RO1w3Xnpd3HG16Rn78BAACAq6Iz5T2cmL27FQtuh58J2QVSXFZ+86d7a6j3vkMeLiCEt9DjjdLxBmrNqf9w717pR/JzNwAAAHBN4jJ3JVgW3GZb2jXgMDHWlNdhfH9fXXFpUws2toLQttxfdVbaX9V2uvBE0xT5ORsAAAD4XmJNX/4u3pxf0rnDLVp1hocFUmxm7vmPCisqD2DuPYQ2JY2qPdEgSbuPNmjk52sAAACg1+hMeU+v3LLnQuKmoiuEQTjU1GUVSvp399buOd6I6j2ENuaRkxeoRWdP/sGmP8rP1QAAAMB1EZeZm7F+xyGrMAiHmNlUvc9r/29eedWBylZsbAWhDUkz7/dXnb1QdPz0LPk5GgAAALhuYk15YxNzCo+v2brPOhTCIWOcOV/asG3PqaLjDadKKlqtAgaE8Na4t2vH2j3HG9bJz88AAADADROXuWtR52z83VbBEA4NYzbu6nh/V+mJknJU7iG0Jak1p+h40+HCquY/yc/NAAAAwA3jbjb/UGfOM6FVZ4iaXSite6eotvAoVe/Rew+hrVhSeYY2tLpYVNrgKj8vAwAAADdNfHb+uPjswoo176BVZ0iZXSDFmPLPbf/qRNnBqtZ29N5DaDseb5Sk3cfrBfn5GAAAAOgz4kx5/1y5eY+UuAmtOkNFXVaBtGbL7oaCo/W1tJBPHjAghLfGo6cuSsVlTUX7alvukJ+LAQAAgD4l3pyHqTpDyJjMXOmdL46WlpQ3X0D1HkLbcH/lWamkohVTcwAAAAwMMZv3jE7IKujaAMs6MMJBZHahtDKnoH7XoVMn92NyDoQ2Ib3RPnqqQyo61qiVn38BAACAfiMhK3/Oyk27L67cjA2wBrMxmbkXsj89XL2/sgW99xDaiMcbJAr3eYVVVT+Xn3sBAACAfiXOnKtdu/2AlJBdYBUc4WCwgP7tWr85cLIGvfcQ2oYHq9ul4rKWkwVHGh+Un3MBAACAfic65T8/jzPlfrn+XfTjD0bjzAVS5kcHK/eVnW4vLmu2ChoQwoF1X0WrdKTuglR8otFDfr4FAAAABoy4zF1/TdhUWEWbYMkDJLRhOz91aflyX23N/oqWDnnQgBAOsKWdu9UWHW3IkCTpdvm5FgAAABhQ4jZ++8/V7+yVEjehH3+wGJuZ15H2wf7qkvLm5uIybGwF4a322KkOae+Jpt1FR6r/LD/HAgAAALeC2+LNeRvWvXsQ/fiDwgIpzpzX9vnemrL9lZicA+Et9XijdLCmXdpfcaal8HCDs/zkCgAAANwy1qQX/TY+u+BjCvnWgRLakrSxVep/Ssr3lTY17ytH9R7CWyn9DB6oOisVHq33lZ9XAQAAgFvOys277k7I3l2zZmuJFJ+VZxUsoQ2YXSDpTHlnPi6qKj9Q2XpRHjYghAMnjaYtbZSk3UfrRfn5FAAAALAZdKb8Z1dtKW5ftXmPdbiEt9w4c74k7iiu2VvadBrVewhvrcfrJWnPsdN5Byub/ig/lwIAAAA2RZxp15tUxU/MKbQKmPDWGpuZe/6D/PLy/RUI9xDeSg/XnZeKy1vK9hytv1d+DgUAAABsDrNZ+qEuK2/ThveOWAVMeOuk3vuk7Xtrdh9rbKJ52/LAASEcCBulA1Vt1Ht/vuhYg4v8/AkAAADYLAk5X49KyM4vwKJbW7FAisnMbX9/V1kVeu8hvHXuK2+Vjp66KO0+1vCW/LwJAAAA2DwxGd/en5izu3TNNlp0Kw+ccCDVZeVL67YWNew+1lCP3nsIb417y5o7N7M60ajfic2sAAAADFZis3fNXLmpqHXVFux0eyuNzcyV3v3mRHlJefMFeeiAEA6MtKi2qPT0f0rqOn4pP1cCAAAAg4p4c37w2m37pcRNu62CJxwIC6XVmwob8o/UnyxB7z2EA27R8UZL5X5fecvB/VUN9vJzJAAAADAIkW7TmfLi120/gMk6t8CYzNyLW744Vn6gsqWd5m7LwweEsD9tlA7XnpcOVrfVFR2td5KfHQEAAIBBS6h574/izXkZ6989KCVkF1iFUNg/0uSclTkFTXmHTlWjeg/hQNsoHaxul/ZVnDmTf7Bmnvy8CAAAAAx6tObcX+vMuR9SyJcHUdg/xpryOnI+PVJaUt7chuo9hAPr/sqzNOu+o+Bo4xL5+RAAAAAYMug2fsUkZOfvxfjMATC7UErMKWj89sDJqv2VqN5DOJDSXhPUmlN0vPFN+XkQAAAAGHIkmPMmJW7aXUk9+fHmKwRT2CfGZOZKmTsPle8ra0LvPYQDaHFZs3SiUZIKj9VvkCTpB/JzIAAAADAkidn4zfSVm/fUrdmKGfn9Y4EUZ85r/bKktno/eu8hHDDpzXRpo0Qz7zfv3VvzC/m5DwAAABjSxG38ek7CpsLmNVv3XSGgwpsx1pTfkf7hgarisqazVE2UhxAIYd9L4Z4q98VlLf8tOtH4W/k5DwAAABgW6LLyn125uejM6newEVafmV0o6cz5rZ8V11QfrDpjFUIghP1hk3S8wbKR1Wd7j9X8RX6uAwAAAIYVsaZdC1duLmpfvWWvdViF122sKV9K/m9JTXFpUyuq9xD2v1S5p3BfXN78TV7lGYX8HAcAAAAMS3SmXZ6JOYUdqxDyb9rYzNzzO3dXVpaUI9xDOBBSuN9b2pz/7YHqMfJzGwAAADCsiTPn+a7cvOfiqs0I+TcqbWwlvltcu+dE4+l95S1WQQRC2Lceq5ekvSea9uTur3OQn9MAAAAA0FnJD1q5uQiV/Bsxu0CKzcw792F+RdmBytaL8iACIexbj9dLUkl5656iY00I9wAAAMC1SMjKV63cvEdatWWPdYiFV5Wq90nb9tTuOXG6oQTVewj7Varc7yk9XZx37CQrP4cBAAAA4ArEmncFr9xcdBGV/N6ZkEXV+9zz/80rK91f3nIBG1tB2D/uLe1qyylr2oNwDwAAAFwnuqxdfrTwFtN1vl+q3q97p6iu8Gj9qf2VGI0JYX9J4b64rLkg/3DtOPk5CwAAAAC9QLdxl+eqzXvaMCf/2sZk5l7Y/vWJ0v0VLei9h7AftGxiZZmW05SbX3Ya4R4AAAC4GeLM+YsSNxW2r3kHO95e0ewCafXmwlP5R+rr0XsPYd9rmXPfuUPtF8VH6zHnHgAAAOgLYk3fvrByU1HTmq0l1gF3WFsgxWTmXXjni+NV+ytazqH3HsK+1VK5b7TsULszd2+9nfzcBAAAAICbQJeV55aYvbth7fb9UnxW3hXC7vCTeu9XbSo8nXf41MkD6L2HsE8tLmuRSk9bNrHanru/4g/ycxIAAAAA+oB4065HV23eU7Hu3YNWYXc4GpuZK2V/erhyX3nzeXk4gRDeuCUVZ6SjpzqkPSeaMgqONfxGfi4CAAAAQB+iM33zcEJ2wf717x6UErILrELvsDG7QErIzm/5+kBdXUl5s1VAgRDemAeq2izuPdEcLUnSD+XnIAAAAAD0A4mmQvv4nMKPqJKfkFNoHX6HgbGmvA7TzkOVJeXNrcVlCPgQ3qxFxxulQzXnaQzm+T1lpwPk5x0AAAAA9DOa9M9+m5BdkLFu+wFp5aYiqwA8tO2s3n+1v7biQFWrVVCBEF6/R05elPZXnm0oOF7/vPx8AwAAAIABImHHwR/Hm/MS1m7bLw2nXW/jzPlS+v8Olu8razqD6j2EN+feE03S8XpJ2ldxpmJvaePj8vMMAAAAAG4BOlPe66u27Dk7LMZoZhdQwG/9bG9NRUkF5t5DeDPSG2TanXZv6enc3ccb/io/twAAAADgFhKbmesen11QtW770J6wE2fO70j57/7K4rKmpn3Y2ArCG7Z7Us6+spbM/RVNGIMJAAAA2CIxGd/en5izu2DDe4eH6OLbAinWlNv2SVF1GebeQ3jjHqxplw7VnpOKSv+/vTuBb6M+8wbO1bL0haWlu7ylSTyjkEMzCsc27TaFEM3IofTY0lI2PWBpd9+3L0uBtlvWDrxQMMcCbcllJySxo/mP7CSE2I5zQJKyQMMNSezY1kiW7TiWRocdJz40ko/cs59nbCXKhECAXI5/38/n+cSaGY3lRHKe+c/zf/7JuZs2hf/G/rsEAAAAziLzyqtzilbVr6O6/Pmrz63Jt7SwFdsYbNd0A51zEIhPGTSZNpTo6w7qqXvsvz8AAADgLDV75XuXzC3f+mRhZZ15ztTlV9Lofc3AX2sTOxsTvQcD0dQxiQsCgTh+0EUxrUwbSvQFtEjqRvvvDQAAABgG5qysuWv+Gq2D6vKH+6JY1DnH+7LWpelGMpRAa0wE4sQjaTa29Zs7dh+kybSvBLZ3jLP/rgAAAIBh5LkXt3yjaFX9G7QoVlFV/TGJ83CJWSu2HvrL1liiEZ1zEIhPFDt2H6BR+/2abjzxXjR6if13BAAAAAxDzy73f6mocpvy/NoG8/m1wWOS57M95lbUmYvX+rvqWpNJdM5BIE4sqIwt3GWaTe17dE1P/9T+ewEAAACGv/PnVdTcU1hR21m8fjiV7NSas1bW7F//QSTR1Na7F7X3CMTHR2PbgBnuMc2GWN/G2u1dLvsvAwAAADiHzKmo+fr81doHi9dvN+dXnf1ddqhzzsI19T21rT0djW2ovUcgPi5adh8wg9HUfk1PzXrnndBl9t8BACem4IK/F92Xjp08/XLuOvcXx46dfvl55513gf2o02X0lCmXjBv3nb+l15IJem30Gmn/mIk3fNUxYeq1553nvsj+XACAEWEhlexU1T+3YLX/ILXTtCfVZ1PMerHaXPdeJBKMpdA5B4H4iAjGeq0uOVrUCNfr3bfaP/cAn4TDmTuBF6UAL8qdvCjv4kQpybk8b3KTPLfZj/2sRovfvoITPD/iRPdX7PsGzbjQIUrljkmeLnotvCjvpnCIuT2cKL1ER/Ci9BgnSpHR4z2j7M8GABhRZq/cekfRqvqm4g3bzaJVZ+EE3Mo6c35VbXd1S/euECbXIhDHDVq0qmnnHqq3X7ZFT461f9YBPinHxNxreEHu4pzSn3mX/O0xLs8PeCF3FidKe3hBmmk//rP4iugReae8zyFMu8m+z+J2X8QJ8hZelF7lXdItmchxSt93iJ5/pEMckzz/2zHJc+3kyZM/Z386AMCI81xlDVdYUVv5/JrA2TUB1+p7v21/1ds74o1tvQNY2AqBODZo1L6165DZ1LanPRBN32f/fAN8WlaCL8ptDqf7n7K3cy73f3CC1Ms5c7+VvZ0X5Gm8KD/Ku6SZo4Rp4zPbc8bnjs0RpTt5QeZ4p/TLsZNyHx3jmvaDw89zSbc4XLmLeEHqc0ya7uME948OnzTDSvClzbwgzbXvyuBE9/Wc03Ob2+2+aPToKZfwgnzX1aJ73BjBcxO9rhyndN9Xnd/4cvZzqOyHE+V/4yflPpojuu+ni4TMvnHj3KN5l/wLuqtA56XXTT+HKM74fPY56OfiRPn3vJj7KC/Kx9w5oxKiHJfnV/Q9OFH++Xm4AAGA06Vg06aLCstr7p5Xsa2jeEOLWbiq7tiE+7RHrVlUWZva2tzV3tQ+cExig0CM9GjeucfqktMQ79uAibRwsmUSfF6Qf5K9/arJk7/AueTtnCj9ObONE+WHeJdH50XZzwlSCy/I4RxR9ljncUrf5wV5Ly/K1Zwof+AQPY28y9PPidJT1PxhjFP+Be/yvM4J0l5e9LzDCe5fZ38/CyX4ovwBL8gL7LsyeMHzLC/I7RMn3nAZlfzwopTgBTnEidKbvCAHedHTx4vSBqrjp+M51zSBF93v8KIc5l1yLSfIHUPfg7PON0lyD92teJcX5fd5lxx0uHIHeEGaQyVDdMzVLrfEC9J2XpRaeFGu50V5p0PwFImiaF0EjBVvzOFF6a+8KLdyoqeOd3naeUFecdXkf/qC7eUDAJw68ypqri2sqFtNI/kL1zV8SNJ9+mL2yhpz5abt8YZYaj9q7xGII0F3syI91oq0ncFob151dQLJApx0x0vwrX2ivCZHlNbT11a5zGAyPS2znxPcy3hB2jRjxowLuYluySHK/ZzofujIfulhXjhSkjPKJV/HC/IuzjVNzhxzlKEEn3PKi8eN+87FFDSSPjSafj4dwjvlR3lBbhBF96XWJFxRilByn+O86SraTyVGVsLulL9Njx2idB8nSGuvumqy9fmxJvAKUpQT5Mfp8dWTpn2LF+UBXpQX0R0B2sYJ0iO8IHePu8Y92vo+ouTnBLkyM6rPCZ7v8oI8kLkLwYvyCl6QNmZe42jRPY4XJbor8qsjPxwAwGkwo7z8wsLymt8UVfnj1uJYZ6I2v5LuINSk3m/c3dmY6D1kT3AQiJEazR17zZZd+81gPL2xPmxMsX9+AU6Wj0rweUFazjnl16yvRWkRjW4P1uhLP3S4PD9wiLnPUSKc47zlKkrwaWSdE3L/IfN8kUbYBUnnXfIf6PGYie6v84K8m2r9s7/PETMu5EX5taER9DiFQ6DRcCnITXA76YjsBN8awRekHbwo/yZzhlFUciPIrZwgW3cIKCmnCwVekL7JueQfUxkOL8i1vCCrtH+sS7qRJvLmuOQbMufgnVPdvCB1ceLN14+dRK9Z6smZIN2Y2W8dM1H6d87pnjL4/aQEjejTXAH6uxmaM9DAi9LS7OcAAJw2c1dumTivsq5i/mrNXPRS6Ngk/BTG7JU1B194vakjFE/3ofYegTBMWuCNRu2Dsd4OLdKTHwgEjqoDBjjZPirB5wT5v3lRXk1fU7LPuzx7aWSaE6SdFLwoJ3hRfo9GzynBt7YfVbPvvogX5a05omzV1B9J8KVbjhyTxe2+iBfkt3lBep1eDy9IP+VE988557Tbhtp3fliC3+IQ5d9nTmHNARDkVqrFp8ejr/OM4kT5RTqOd8lv0Wg/5/IYnCAvpv2ZBJ9z5UqZc9AdBl6UOq16f8H9I/p6/Hj39Zn92XKcnq9x9DMJnm5ekNqP/N14YrwoP20/HgDgtJqzsuauoir/dhrNp2Tfnoyf/KDJtTX73g12JJra+o9JdBCIkRRUntaye7/Z2NZvBqLJdXUtXZPsn1GAU+F4Cf5occoVlMDniFIBPeZFaRUnSq9SXTnVv1NwnPtvhurUz+eEaVS20j56Qu43MuewRs5FWeNdnmfp8ceO4J/AJNsPT/ClBzL7uYlufnAE33OPdbwoL+JEqZG2UymRdYzgfoVzSmX09ZEE33O4bChHvMlzOMGnZF+Quq523vS1zP5soyZ5rrWeL7r/lSbz0t8LvbbBSbYFZ2w9AQCAw2at2DKmqKJ24YLV2p5FLzeahVYJjT0xPzlBC1uVvhLaGdCNfozeI0ZyWKvRdptmIJZurW/t/uWmTZuwgA+cNpkEn+rKszZfwLvkBRwlrpMypTHSg7wgp0c73YcvPmmSKfXRt/a7bvo2les4JnluzuznBien9mYuHkY5p0/hBbknx3V0ucthmUm2TmmhfVfGiSb4vCj9u3W8KL/Gi9K6zP7BibmeAC9KCj3+qASfLkicdHdCkDo455G7BHTxwwnSurGC/D26yOFFqYEX3JWZ/eQqcXpOdrceAIAzrmiNf3phZe3bNAH3VEzCLaysNedWbOt/o769rTHRe1DD5FrECAwqxwl3H6I/+7SYUaTFu8bYP4sAp5pjgufaoSS8khfc+bwoFThcuRt4l9zlEN3/nDlu7LU3X+mg5Nvl2Z4jyH+gCbQO0fMu75JeoJFq3im5ucNddNwPcYLnEYcrN8yJ8huZjjb8RHkiL0idDlfuy8dtk0kj/k6J2Xdl8E75vzhBjtJI+VeduV/mBWnnWFE+PLE3Z/zUsTSRlxek39Hjwdci7eMEqYQ6+vCi/NbYSTebvCAvs853DbX9lPaMybowGWNdrEh7x4wfnBxsdQ8SpC6HKD3HifL/50XPJlocbMKEmx3WOQTpp7wg93OCXDHYaUiaY3XUcco/zpwTAOCssKB806XzVm77XWYS7sks25lTvu2QurGhIxhL9TRgYSvECIvBcpwDZnPHPjMQM96o29E91f75AzhdrBFvUVrvED113GD7yyAn5C7OET2i/djBEXN5Fo2gW6vfCp5nnM5cq+c8J7q/w4lSPMfpftQhSGt5V26QRslpBPzIGczzeVG+23HN9GCmbOco1I1HlL28IOfbd2VY/ewFecWUKVMuoQsHXpArxlLf+SE0H4AXpFU5E6Xb6fFgmZD7N7woN9DFg0OQf8053X+iOxS03zFxGi30tTHnGnny4XNcM3UyJ8h/GTXBc+3QpvM50fOvnChX8y5PYPDuxtGr8XITPTJHdwtcudpgy07ph/TzZB8DAHDWmL2yZty8im2L51XW9RWvPzkr4c5+sWb/X2vbdKxaixhpYfW07z5khhL9DYFI6v81NzdfbP/MAQxHmRp86jxj3wcAAGepoorqm+ZV1G5csCZgfqb6/Mo607s+2O6PJA0qUbAnQAjEqYxALG02JPoHI95njabbjzkVEUr0mXrSNJvaB3aH4ulnmptTf2//jAEMZ4MtIuVj2kkCAMBZrqDAvGBOefWdRVX1Wxa+FBqqz689Nok/XlRanXMGXqmOxZva+7CwFeK0Bk3mrmlqN9e/+pZZtW6j+fq7tUPbe61E/1REMN5rtnYdoj/3NO3cx+qj6WvsnyuAc8Fo51R3jlOq/eq4aYf74AMAwDDyx/JXLy9aVffboqr67YtebjJpRdxjkvkPibnl28zF6/xd9eGe7lACrTERpy8C0bRZH+4xK1e/ZBYvXmSWFC8yl5QUm6++XT00kp8+Jjn/rEF3qIKx3j3BWPolLTbw4St3Apw7zj/Paps5uJorAAAMU4WrPhhdWFnzZGFFbXvJhhZzwcdMxJ21YuuhDZv1eCg+mEzZkzAE4lQFjaR/EIiYiqJYwRgzVcbMhYsWmU/+1zPmE089bf35WeOpp581/zxrrjl/YYn5/GKvObfoefPBBx+M/Pb++7bl5f1nU35+fssZjKa8vLxGBOJURH5+fsPMmTO1/Pz8kH1fVmz/kPflORkPPvhgS15eXkN+fv54+/+dAADDwrzKbePnVdTMLays6yle32w+vyZwTHJPtfcLV9d1bdvRY1A9sj0BQyBOZVCCvzWUMH0+n7lkyRKTMcX0LikxS5cuN30rqkx1+SpTfeFTxvJK6xwr1/zFivmLlW3333/vE/fec3fB/ffeU/DAA//xx/z8/Nl5eXmzzlTMnDlzVn5+/jN5eXlPIRBnKvLz8/9E70X7+/NcjIceeog+c3/Ky8s7qtsOAMCwU7hym1hUVbdgwRptd8nGlsHWmpWDNfqzVlQfWPtupL0x0bsPo/eI0x2ZspmNf33PGr2n8pyly1dYo/o7ug6Z23cdMLfv2v+Jo6XzoBnvNc22fpNq7YMd+w7dZ5rml+yfDQAAAIBhbW755uvnr66fP698W4pG9BesbTCLVtX2Vbd07WrE6D3iDEXmwvK9+h3mG5s1s7qxzQzGP937kbrx0OTZll37zVCiV/NHkr8JRJNX2D8LAHB6lJWV/a/y8vLL6U/7vmyzZ8++pLi4+PITWTG6sLDwYjqn1+u9zL6PLFmy5IqFCxfigh4ARpa5VZpQWFE7b25FfaLq7dZU884Ba+KhPVlCIE5XWJNfE31mqG3A6p5j3/9xQc/d0XnA3N6xj97LW0JtffdU7+i+3P7eB4DTo7i4+AuKojzGGNvl8/kMxthuxlgBbc8+rrS09Mter7fA5/NFGGOpkpIST/Z+O6/Xe3tpaWmotLQ0pSiKoSjKfEroaV9BQcEFjLEHGWONjLEGxtjvaJv9HAAA57RnSjdPeD+065FA1Ajv2H3A3NF5EJNsEcMqaN5IpMekpP6Aphtv1oe77vigufNv7e91ADh9TNM8X1XV2VR2N5Rw/0BV1aeXLVtmer3eP2SOKysru1JV1bcZY/tKS0sf9/l8txYXF//d0Wc7wuv1fosxttfn873o9XpvpQSeMXaIMTaX9quqeiNjbLuiKN9VFOU2+trr9X596Ll3Koryz/ZzAgCcszYHOr5SHzZ+H4r3VTfv3Gu2dh40Q21ol4k4O4MuQul9Gu4yTS2a2qtFjNXBROqHGKkDODuUlJSMZowlGWPe7O2KoryuKEq9qqrUtpMS8qdVVd3DGPtG9nHHQ6P1jLGdNOqf2cYYK2GMxeiciqLcrSjKW1n73vR6vd8fej00qv/DwycDABgp/HryS/5I8k5NN94IJfr30Aqfje0DGNVHnBVBC2JRbX242zQb2wbaG2Jprz9sfMv+PgaAM2vBggWXMsZuUVWVz96uKMp6xtjbM2bMuLC8vJyOoRH2BT6fb9QLL7zwda/XOzH7eJvzGWNvMMZezd44lNT3+ny+qxVFmaooSrPX6/0HVVWnqKraSKP6qqoqiqKUZD8PAGBEatDTN2t6SglEU51U20zlO5+mNhqB+KxBF5lWUt9u1ef7tXDy4VDc+KhEAADOMsXFxZR89yuK8mt6rKrq9YqidCqKspUxFiktLaXSmz6fz/dkeXn55+3PLygouEhV1S2KoqzN3u71emcwxvZQcj9Ugz+Hkny6eGCMPcwYu0NRlJqlS5eidA8AICPYYowPRFOPNcTStbTK7eDoab+1wqg9EUMgTlZQf/zmjr1WfX0w3pvy68ZfGhLpn9NdJvt7FADObjRCzxgLeb3eDZnknTH2PVVVDymK0kQTa0tKShw+n+8JqtNXFOVf7OegBJ8xtllRlHXZ21VVtRL80tJSd9Y2J90NoFIeVVXfZYz9n7Kysm8uW7bsx/Rasp8PADCi0cTFhmjqtlCi70V/xEi17D5gtSNE9x3EyYym9gErqaeLSS2S2qFF088GY33ftL8fAWB4oCRbUZQtqqoGFi5ceGVm+9Ak2APZE1+pRaaiKA2qqpYfPsGQ4yX4iqL8hBJ8n883LXs7odF8VVWX00RfRVGo8877jLH3PqYUCABgZKpvNSYG9dTDwVjve8FYykr0h9oTHpOwIRAfGdGUdUeoZfd+630UiKW7A7qxKhBN31Eb7vmi/b0HAMMH1eKrqkoTa/WysrJx2fsYYzcoikKlNT/P3q4oypuqqv43deLJ3k6o/p4x9k72hHrG2P2KoqR9Pp8r+1hFUabThN6hjjq1dEFx9913f44m3qqq+nj2sQAAkCUQ6Lg0FEtLwUTvAr9uRKgXedQwzab2PZiYizhu0HuDJszS3A6dRuvjfb3+iLG5IZb+fV20a5L9fQYAww8tRsUYe0FVVf/SpUtH2/erqvpFqpVXFGV1ZltxcXEOY6xTVdX5mW20AFbma0VRnqEJtYyx8VnbVlOHHDpfZtvQXYN3FEX5LZX+DE28tX63MMYqMm01AQDgY9BqoYFo8o6GeLpMixqJ7bv2We02aWSfkjl7kocYeUE96wfXWzhgvSeC8b5qLWr8sTHRP7XANNHiEuAcMTTZtbCqqorq6VcxxvIYY39QVfVRWuxKUZTr6DjG2C+HeuWvUBTl8bKysq0+ny+mKIpI+6lDjqqqWzOP6S4AY4zuBmyj8zDGmKIoVMf/2+zvv2TJkp8yxl6i1plDFxpvUBsdVVV/RhcDXq/3ruzjAQDgBAQS/TnBWPpfNN2oaIj36jRZklpu0sg+deLB6P7ICGt12nivuX3XfuvOTiBq7PdHDC0QTc3VYmnZ78eEWYBzEdXLU0K9bNmyD6iDDWMsSCvLUh28z+ejyba3Z45ljFEyvrW0tLTR5/PRaPw1mX2Kovxfxtj7S5YsuTazrays7Dqfz/cyrWarKIrf6/XeW15efmFmP6GVbZcvX3749wtdUCiK8nJZWdlbVI9fXFz8uezjAQDgE6oN9/BaxLirIdHHtEgyTpMnW7sOWkEjuvakEDG8g5L6pp17rG5LdBcnEE0d0KKp6mDUeEaLJm/ZFOi41P4eAQAAAIBhqq49fWUo3nerFjUWBWPpak1P7qOOKVS2QaP7DfE+jO4Ps6B2qXTRRndpwl2HrLKsQDTV4deN1/yRZEEgmvzH0O7dl9nfCwAAAABwjgmFdl9Wr6duCkTT/6npyQ1aJLlL041DlPAPrVQ6lOwj4T+rIjq4omym7Iq63wRj6QFNTzUHYmmvpnf/oiGaxkRZAAAAgJGMJmRtjey6KtTWd7sWTc1pSPS+rkV6uq0JmbsPmNRznxJK6tJDbRWPSToRpyxohJ7aWFK5Df070IrGobZ+0x8xWkLx3lX14eQjgURqaiJhfsH+7woAAAAAYNnQ3HzxtkinqMVSt2vR5Gx/pOf9hnhvQtONgzRqTKP8zUN992k0GWU9Jycy7SspgacLK5oYSwm9FjH6AtFUq19PvhSMpmZqsbSkxfvH2P/dAAAAAABOGE3WDUZTP/JHko8GoqmVfj3ZoOnGgcb2AWt0mcp6qP1iplOPPXlFHB2UzNMkZ7ozQgtMUe188869VmmUP5I0/Hry3WA0vTgQTd7vb+1214bDWHQKAAAAAE6dxkTq74J62tUQTf/Mryf/FIimNgT0Xs0fSXZS4kqjz5FuqhE/YHV1oYmgNIl3JI34U3lNMN5rlTZR4k7JPI3IZ+6C+CPJ/VokGQvG0pv9EWNFoLXnwYZE+ubGSI8j0IFuNwAAAABwhlVXd18eiPde7w/33ObXjQe0iLHIrydf80eMSEA3+vy6cdAqP+k8aEaTg5N5j1wADN8OPnTRYtXJd+w7KoHPLDIWiBr7NN1IahHDr0WSVbS4lBbp+ZV/R/LmQDQ5zizAIlMAAAAAMEwEAoHPh8M9X6yLGxPqw8Z368PJewN66s8B3VihRVOvDya9RsIfSe6lZJ8SYypZoUR5cILvfqsEiJJlKmGhEiAqC6KEmi4KaHTcmgswNB8gc4fghGLoeAo6BwWdk+420Pmb2gesiw/6vvT9acGowYmuB6x1BKgtJb1eOt6vG4amG63+iLElEE2t1yJJxR/pfqwuYtwVivffUBvtHBXoMC+lCc32vyMAAAAAgHMCrX5Y15K+0h9OObVI1w3+sPG9hnjvLwOx1EP+SHKuphvL6iM9r2h6spqSZy2aaqMSIKpRp4mnft3Y648kD2bq2Sn5HxxFH0rAuwfLhCgJzwRty/SLp4sHKpuhCwZK7mk03h9JHvDryT3+SLJX040eah8a0I24picbA1HjHS2SXBvQDa9GC0fpxu+C8f6f+PXk9IZIz9fqIj2O6h3dl9t/TgAAAAAAyLJp06aLmpubLw5Ek1f49eRYrbX7ujq9e6rWmrylLtzzY380eWd9pOdX9ZHkff5wzwMBPfWQpqceqYskC7Sw8YSmp5/068ZTmm48qenG4/5I8jFNTz2sRYx8StLrwslf+8M9/6aFkz+r141bg5Ge3LqY8c1AJCXWx/pG05oBdCfCNFFKAwAAAAAAAAAAAAAAAAAAAAAAAAAAAAAAAAAAAAAAAAAAAAAAAAAAAAAAAAAAAAAAAAAAAAAAAAAAAAAAAAAAAAAAAAAAAAAAAAAAAAAAAAAAAAAAAAAAAAAAAAAAAAAAAAAAAAAAAAAAAAAAAAAAAAAAAAAAAAAAAAAAAAAAAAAAAAAAAAAAAAAAw9b/AL0JaqgT16XNAAAAAElFTkSuQmCC;" vertex="1" parent="1">
          <mxGeometry x="-60" y="410" width="760" height="470" as="geometry" />
        </mxCell>
      </root>
    </mxGraphModel>
  </diagram>
</mxfile>
